{"glyphs":{"0":{"ha":404,"x_min":11,"x_max":393,"o":"m 153 101 q 153 148 153 111 q 153 234 153 185 q 153 339 153 283 q 154 444 154 394 q 154 529 154 493 q 153 576 154 565 l 150 606 q 128 649 147 632 q 86 687 108 667 q 44 738 64 707 q 17 822 24 768 q 22 942 11 882 q 56 1053 33 1003 q 110 1135 78 1103 q 176 1167 142 1167 q 244 1140 208 1167 q 309 1070 279 1114 q 361 972 339 1026 q 389 865 383 918 q 385 799 393 822 q 363 763 378 776 q 328 737 347 749 q 292 703 310 725 q 261 641 275 681 q 244 533 247 601 q 246 490 246 522 q 245 412 246 457 q 242 317 244 367 q 240 223 240 268 q 238 144 239 178 q 239 101 238 111 q 233 83 236 97 q 228 52 231 68 q 222 22 225 36 q 215 1 219 7 l 208 1 l 190 1 q 172 31 183 14 q 158 60 160 49 l 157 74 l 153 101 m 101 822 q 117 794 103 810 l 132 778 q 141 783 136 778 q 151 795 146 789 q 159 809 156 801 q 161 822 163 817 q 158 863 160 832 q 154 928 156 893 q 150 995 153 964 q 147 1036 147 1026 q 115 1019 125 1036 q 101 977 104 1003 q 97 922 97 951 q 97 865 97 892 l 99 850 l 101 822 m 253 1008 q 249 972 251 999 q 247 915 247 944 q 247 858 247 885 q 247 822 247 832 l 251 793 l 253 778 q 265 777 257 774 q 281 789 272 781 q 294 807 289 797 q 299 822 300 817 q 301 847 300 833 q 303 870 303 858 q 300 893 303 882 q 289 962 297 926 q 253 1008 281 997 z "},"1":{"ha":415,"x_min":11,"x_max":408,"o":"m 13 1057 q 19 1089 11 1069 q 33 1119 28 1108 q 61 1125 36 1119 q 119 1138 86 1131 q 186 1153 153 1144 q 239 1167 219 1161 l 258 1167 q 306 1160 282 1167 q 351 1136 331 1153 q 388 1090 372 1119 q 408 1014 403 1060 l 169 1000 q 142 957 151 1000 q 129 843 133 914 q 124 682 125 772 q 123 497 124 592 q 120 313 122 403 q 111 153 118 224 q 91 38 104 82 q 56 -6 78 -6 q 36 263 42 131 q 28 526 31 394 q 23 790 25 658 q 13 1057 21 922 z "},"2":{"ha":407,"x_min":14,"x_max":404,"o":"m 392 1124 l 397 1075 q 388 942 404 986 q 341 878 371 899 q 274 855 311 858 q 202 845 236 851 q 142 821 168 839 q 111 756 115 803 q 110 692 111 735 q 106 597 108 650 q 102 483 104 543 q 99 370 100 424 q 96 274 97 317 q 93 211 94 232 q 90 151 92 186 q 86 83 89 117 q 83 3 86 44 l 46 3 l 26 211 q 24 328 25 261 q 22 469 24 394 q 20 620 21 543 q 18 769 19 697 q 14 1124 15 940 l 36 1169 l 392 1124 m 124 947 q 156 949 133 947 q 203 955 179 951 q 250 961 228 958 q 283 964 272 964 q 299 981 290 964 q 307 1010 308 999 l 118 1010 l 124 947 z "},"3":{"ha":422,"x_min":18,"x_max":414,"o":"m 24 158 q 22 259 22 193 q 20 404 21 325 q 19 569 19 483 q 19 731 19 656 q 18 863 18 806 q 18 943 18 919 q 22 1005 19 967 q 26 1082 24 1043 q 33 1172 31 1125 l 325 1193 l 351 1181 l 367 1153 l 376 1060 q 367 1038 378 1044 q 340 1028 357 1031 q 303 1027 324 1026 q 265 1031 283 1028 q 233 1038 247 1035 q 218 1040 219 1040 l 108 1043 q 113 1003 111 1028 q 124 955 115 978 q 151 915 133 932 q 203 897 169 897 q 226 897 210 893 q 265 906 243 900 q 309 915 286 911 q 352 918 332 919 q 387 905 372 917 q 407 867 401 893 l 414 797 q 380 780 407 782 q 321 781 353 778 q 262 786 289 783 q 226 783 235 789 q 172 785 193 792 q 136 768 151 778 q 114 740 122 757 l 118 693 q 156 647 132 660 q 206 634 179 635 q 260 638 232 633 q 315 641 289 642 q 365 628 342 640 q 403 583 388 617 q 408 566 407 576 q 408 543 408 556 q 406 514 407 531 l 138 503 q 129 488 133 503 q 120 453 125 474 q 112 413 115 433 q 106 381 108 392 q 108 348 107 372 q 108 291 108 324 q 110 222 108 258 q 111 152 111 185 q 110 96 111 119 q 108 64 108 72 q 108 45 108 58 q 106 19 108 32 q 99 0 104 7 q 82 1 94 -7 q 56 25 65 14 q 40 50 46 36 q 33 78 35 64 q 29 111 31 93 l 24 158 z "},"4":{"ha":499,"x_min":14,"x_max":499,"o":"m 32 107 q 29 240 31 160 q 26 409 28 319 q 22 588 24 499 q 18 749 19 676 q 16 869 17 822 q 15 918 15 915 q 14 972 14 931 q 19 1060 14 1014 q 40 1142 25 1106 q 85 1178 56 1178 l 107 1178 q 165 1165 124 1174 q 253 1148 207 1157 q 342 1131 300 1139 q 400 1117 383 1122 l 413 1101 q 398 1028 417 1049 q 349 1008 379 1008 q 281 1015 319 1007 q 210 1026 243 1024 q 152 1017 176 1028 q 124 964 128 1006 q 119 945 119 958 q 122 917 119 932 q 130 890 125 903 q 142 872 135 876 l 393 907 l 418 883 q 423 849 419 867 q 423 814 426 831 q 406 783 419 797 q 360 765 393 769 q 316 751 347 760 q 248 737 285 743 q 179 725 211 731 q 135 719 147 719 l 138 626 l 408 650 q 481 600 464 622 q 489 561 499 578 q 449 534 479 544 q 380 517 419 524 q 297 506 340 510 q 220 503 254 503 q 167 506 186 503 q 154 514 149 508 q 132 483 136 501 q 132 431 128 465 l 403 443 l 436 424 l 456 390 l 460 333 l 431 314 l 183 317 q 163 316 178 317 q 140 300 147 315 q 135 269 135 289 q 133 243 136 249 q 131 193 135 226 q 123 122 128 160 q 110 51 118 85 q 96 0 103 17 l 85 0 q 60 -6 69 -11 q 46 12 50 0 q 39 35 42 24 q 36 47 36 47 l 35 76 l 32 107 z "},"5":{"ha":436,"x_min":14,"x_max":428,"o":"m 26 1136 q 53 1160 28 1156 q 107 1167 78 1164 q 161 1172 136 1169 q 194 1174 186 1174 l 246 1174 q 313 1146 282 1174 q 367 1078 344 1118 q 405 994 390 1039 q 422 911 419 949 q 405 780 428 828 q 342 698 382 732 q 254 636 303 664 q 158 567 206 608 q 127 486 133 539 q 122 371 121 433 q 126 242 122 308 q 123 123 129 176 q 97 35 117 69 q 31 1 76 1 q 29 58 31 17 q 27 147 28 100 q 25 235 26 193 q 22 292 24 276 q 22 390 24 322 q 19 542 21 457 q 16 721 18 626 q 14 900 14 815 q 14 1051 14 985 q 26 1136 14 1118 m 135 869 q 153 699 132 710 q 197 702 175 689 q 248 748 219 715 q 306 843 276 781 l 306 857 q 297 918 303 886 q 281 976 292 950 q 253 1018 271 1001 q 208 1035 236 1035 q 173 1035 200 1035 q 131 943 146 1036 l 135 869 z "},"6":{"ha":438,"x_min":13,"x_max":419,"o":"m 81 1190 q 238 1176 192 1183 q 320 1146 285 1168 q 379 1080 356 1124 q 411 967 403 1036 q 402 844 419 890 q 354 767 385 797 q 287 717 324 736 q 219 678 250 699 q 168 630 188 658 q 153 556 149 601 l 326 567 l 369 553 l 396 547 l 414 536 l 418 486 q 310 449 356 458 q 234 440 264 440 q 188 441 204 439 q 163 438 172 443 q 150 417 154 433 q 140 360 146 400 q 134 314 136 350 q 131 238 132 278 q 128 163 129 199 q 129 115 128 126 q 117 72 122 93 q 102 35 111 51 q 79 10 93 19 q 42 0 65 0 q 24 295 26 147 q 22 592 21 443 q 17 925 22 740 q 44 1167 13 1110 l 81 1190 m 218 1039 q 188 1040 201 1039 q 164 1040 175 1042 q 144 1031 153 1039 q 133 1000 136 1022 q 130 948 129 981 q 131 884 131 915 q 133 827 132 853 q 133 793 135 801 l 194 793 q 277 812 251 793 q 294 894 303 831 q 288 935 293 911 q 273 983 282 960 q 250 1022 264 1006 q 218 1039 236 1039 z "},"7":{"ha":456,"x_min":8,"x_max":446,"o":"m 31 1161 q 56 1165 33 1167 q 106 1157 78 1164 q 163 1140 135 1150 q 210 1119 192 1131 q 238 1097 219 1115 q 276 1056 257 1078 q 313 1013 296 1035 q 336 982 331 992 q 343 967 339 974 q 349 953 347 960 q 353 942 351 947 q 353 913 353 931 q 356 883 354 894 q 352 855 356 878 q 342 803 349 832 q 326 747 336 775 q 303 706 315 719 q 284 680 296 694 q 264 665 272 665 q 241 653 257 660 q 206 642 225 647 q 169 633 186 636 q 146 631 153 631 l 142 567 l 347 607 l 382 594 l 392 525 l 358 500 l 147 500 l 144 419 l 408 450 l 432 443 l 446 386 q 426 360 439 376 q 406 333 414 344 l 347 332 q 306 328 336 332 q 241 317 275 324 q 176 302 207 310 q 135 290 146 294 q 128 247 131 285 q 124 165 126 210 q 119 80 121 119 q 114 31 117 40 l 92 14 q 78 15 88 14 q 58 17 69 15 q 39 19 47 18 q 25 19 31 19 l 10 56 q 16 94 14 65 q 20 153 18 122 q 24 211 22 183 q 31 249 26 239 q 30 291 29 258 q 33 360 31 324 q 38 428 36 397 q 36 469 39 460 q 37 549 38 501 q 36 640 36 597 q 36 747 36 692 q 35 824 38 768 q 28 944 32 881 q 16 1063 24 1007 q 31 1161 8 1119 m 136 747 q 206 775 196 758 q 214 803 217 792 q 219 833 218 818 q 219 872 222 844 q 211 911 215 900 l 199 942 q 183 953 193 947 q 161 967 174 960 q 137 978 149 974 q 117 982 125 982 l 136 747 z "},"8":{"ha":485,"x_min":11,"x_max":476,"o":"m 25 1167 q 58 1171 31 1172 q 123 1165 86 1169 q 195 1151 160 1160 q 247 1133 231 1143 q 274 1110 256 1128 q 313 1069 293 1092 q 350 1026 333 1047 q 371 994 367 1006 q 379 978 375 985 q 384 965 382 972 q 386 951 386 957 q 396 866 392 914 q 385 769 400 818 q 324 676 369 719 q 181 603 278 633 l 175 564 l 375 619 l 411 603 l 425 549 l 406 526 l 206 483 l 190 476 l 175 476 l 175 417 l 190 410 l 392 457 l 431 450 l 458 426 q 473 375 476 392 q 453 351 469 358 q 415 343 438 344 q 372 336 392 342 q 331 335 360 336 q 272 331 303 333 q 213 323 240 328 q 174 314 185 318 q 168 303 172 311 q 162 285 164 294 q 162 267 160 275 q 175 257 164 258 q 214 256 192 253 q 260 263 236 258 q 308 270 283 267 q 357 274 333 274 q 417 261 388 274 q 462 228 447 249 q 469 186 476 208 q 419 143 461 164 q 361 139 397 133 q 285 154 325 144 q 210 170 246 164 q 157 167 175 176 q 135 139 140 158 q 128 97 129 119 q 128 51 128 74 q 124 14 128 28 q 108 -2 119 1 q 83 -4 96 -6 q 56 -1 69 -3 q 31 1 42 1 l 25 58 q 37 515 36 282 q 17 976 38 749 q 11 1081 11 1043 q 14 1135 11 1118 q 20 1158 17 1153 q 25 1167 24 1164 m 175 757 q 215 767 200 757 q 235 793 229 776 q 242 833 242 810 q 242 882 243 857 q 238 897 240 886 q 232 919 236 908 q 225 947 229 933 q 211 960 219 951 q 192 976 203 968 q 170 989 182 983 q 151 994 158 994 l 175 757 z "},"9":{"ha":453,"x_min":8,"x_max":442,"o":"m 24 178 q 24 234 24 192 q 26 334 25 276 q 28 456 26 392 q 30 577 29 519 q 31 677 31 635 q 33 735 32 719 q 26 837 33 775 q 13 961 18 899 q 11 1077 8 1024 q 35 1153 14 1131 q 51 1155 38 1153 q 81 1159 64 1157 q 113 1164 97 1161 q 136 1167 129 1167 q 160 1164 144 1167 q 194 1159 176 1161 q 226 1155 211 1157 q 244 1153 240 1153 q 258 1136 253 1143 q 271 1124 265 1131 q 282 1111 276 1117 q 295 1092 288 1107 q 311 1063 303 1078 q 325 1033 319 1047 q 331 1014 331 1018 q 332 990 332 1008 q 331 949 332 972 q 328 905 331 926 q 324 874 326 883 q 313 856 321 868 q 297 832 306 844 q 280 807 289 819 q 264 790 271 794 q 242 766 258 781 q 206 737 225 751 q 169 710 186 722 q 144 693 151 699 l 375 710 l 397 693 q 399 672 399 681 q 399 658 400 664 q 393 651 397 651 q 393 637 394 647 q 388 617 392 626 q 380 601 385 608 q 371 594 375 594 q 352 597 368 594 q 318 601 336 600 q 285 601 300 601 q 267 594 269 600 q 249 597 263 594 q 220 600 236 599 q 188 601 204 601 q 161 593 171 600 q 150 578 153 589 q 147 557 147 567 q 145 538 146 547 q 142 526 144 528 l 364 540 l 394 526 l 415 481 l 414 450 l 331 450 q 252 451 294 450 q 176 460 210 453 q 156 449 163 461 q 147 422 150 436 q 144 394 144 407 q 142 386 144 382 q 154 383 144 383 q 185 384 164 383 q 240 383 207 385 q 322 374 274 382 q 350 370 331 372 q 390 364 369 368 q 426 352 411 360 q 442 333 442 344 q 435 306 439 328 q 431 276 431 285 q 400 281 422 276 q 349 292 378 285 q 286 305 319 299 q 224 318 253 311 q 174 329 196 325 q 143 333 151 333 l 143 275 q 182 268 154 275 q 240 254 210 261 q 295 240 269 247 q 329 233 321 233 q 345 221 333 228 q 370 206 357 214 q 395 191 383 199 q 413 178 407 183 l 419 161 q 425 149 422 156 q 429 136 428 142 l 419 108 l 369 103 l 224 140 l 161 150 l 136 136 l 142 14 l 126 0 l 86 -3 q 79 -6 82 -6 q 67 0 71 -6 q 53 24 60 7 q 47 39 50 31 l 36 108 l 24 178 m 121 832 l 153 832 l 194 832 l 219 874 q 222 901 218 883 q 225 940 226 918 q 215 986 224 964 q 204 1014 206 1008 l 163 1033 l 119 1014 l 121 832 z "},"A":{"ha":558,"x_min":3,"x_max":536,"o":"m 343 586 q 317 574 336 583 q 278 555 299 565 q 241 535 258 544 q 217 522 224 525 q 206 515 214 519 q 188 506 197 511 q 171 496 179 500 q 158 490 163 492 q 150 485 157 489 q 134 478 143 482 q 117 472 125 475 q 104 467 108 468 q 97 463 103 465 q 85 460 92 461 q 72 458 78 458 q 63 457 65 457 l 53 457 l 49 457 q 33 462 43 457 q 19 467 24 467 q 13 477 17 469 q 8 490 8 485 l 6 497 q 3 507 3 503 q 6 515 3 508 l 8 522 q 24 535 15 528 q 37 546 31 540 q 49 556 43 551 q 62 563 53 557 q 81 575 71 568 q 102 588 92 582 q 117 597 113 593 q 124 602 118 599 q 138 608 131 606 q 151 615 144 611 q 158 619 157 618 q 171 627 163 622 q 188 637 179 632 q 206 647 197 642 q 217 651 214 651 q 232 659 219 653 q 259 673 244 665 q 285 687 274 681 q 301 694 297 693 l 343 726 q 358 744 349 732 q 368 760 368 757 l 368 1108 q 374 1123 368 1111 q 385 1140 381 1135 q 389 1144 386 1142 q 394 1149 392 1147 q 397 1150 396 1150 q 412 1156 400 1153 q 426 1160 424 1160 q 442 1161 435 1160 q 454 1163 447 1161 q 464 1164 461 1164 q 472 1163 467 1164 q 482 1161 476 1161 q 493 1160 488 1160 q 505 1154 497 1158 q 519 1145 513 1150 q 531 1135 525 1140 q 536 1128 536 1131 l 536 33 q 526 24 536 32 q 510 11 517 17 q 497 5 508 8 q 481 1 485 1 q 472 0 476 0 q 466 -1 469 -1 q 460 -1 463 -1 q 455 -1 458 -1 q 447 0 451 -1 q 439 1 443 0 q 431 2 436 1 q 420 5 426 3 q 408 8 414 7 q 397 11 401 10 l 385 22 q 379 28 382 25 q 375 35 376 32 q 368 43 371 40 l 368 575 q 363 581 368 578 q 356 586 358 583 l 347 586 l 343 586 z "},"B":{"ha":463,"x_min":19,"x_max":449,"o":"m 25 503 q 22 614 25 551 q 19 745 19 676 q 22 881 19 814 q 31 1005 24 949 q 54 1102 39 1061 q 96 1158 69 1143 l 113 1164 q 139 1135 114 1164 q 197 1069 164 1107 q 265 990 231 1031 q 322 922 300 949 q 344 893 333 906 q 362 866 354 881 q 375 837 369 851 q 381 800 381 822 q 369 740 381 767 q 342 690 358 714 q 305 646 325 667 q 268 604 285 625 q 240 560 251 583 q 229 510 229 536 q 398 322 347 401 q 431 182 449 242 q 329 78 414 122 q 92 -3 244 33 q 44 19 64 -3 q 25 94 25 42 l 25 503 m 125 167 q 142 181 131 172 q 158 189 154 189 l 169 189 q 186 206 175 193 q 210 233 197 218 q 233 263 222 249 q 247 285 243 276 q 201 350 231 324 q 144 376 172 376 l 125 376 l 125 167 m 125 568 l 247 751 l 247 786 q 233 844 247 818 q 200 890 219 869 q 160 929 181 911 q 125 961 139 947 l 125 568 z "},"C":{"ha":218,"x_min":29,"x_max":189,"o":"m 108 1165 q 133 1156 118 1161 q 147 1147 147 1150 q 164 1135 153 1147 q 178 1119 175 1124 q 185 1103 181 1114 q 189 1089 189 1092 l 189 514 q 188 497 189 508 q 184 475 186 486 q 181 453 182 464 q 178 442 179 443 q 165 420 175 433 q 147 407 156 407 q 132 406 139 406 q 119 403 125 403 q 108 403 114 403 q 88 405 103 403 q 68 407 72 407 q 56 420 65 407 q 44 442 47 433 q 40 451 42 443 q 35 469 38 460 q 31 486 32 478 q 29 499 29 494 l 29 1089 q 35 1103 29 1092 q 44 1119 42 1114 q 56 1133 47 1124 q 68 1147 65 1143 q 83 1156 72 1150 q 97 1165 94 1161 l 104 1165 l 108 1165 z "},"D":{"ha":558,"x_min":3,"x_max":542,"o":"m 281 660 q 290 684 282 668 q 308 717 297 700 q 327 751 318 735 q 343 772 336 767 l 343 965 q 337 977 343 969 q 328 989 331 985 l 314 989 l 290 989 q 267 976 286 985 q 242 965 249 968 q 214 946 236 961 q 167 914 192 931 q 119 882 142 897 q 92 864 97 867 q 80 856 90 860 q 67 853 69 853 q 64 851 65 851 q 56 850 60 850 q 49 851 51 850 q 44 853 46 851 q 24 869 38 856 q 7 886 10 882 l 4 890 q 3 897 3 892 q 4 903 3 901 l 7 907 q 20 922 10 911 q 42 942 31 932 q 64 963 53 953 q 82 975 75 972 q 96 985 83 976 q 124 1006 108 994 q 154 1026 139 1017 q 179 1042 169 1036 q 198 1053 182 1044 q 217 1065 214 1061 q 228 1072 219 1067 q 248 1085 238 1078 q 268 1101 258 1093 q 281 1110 278 1108 q 292 1117 282 1114 q 306 1124 303 1119 q 317 1131 308 1125 q 335 1144 325 1136 q 355 1158 346 1151 q 365 1167 364 1165 q 381 1173 372 1169 q 392 1176 389 1176 q 399 1178 396 1176 q 405 1179 401 1178 q 411 1181 408 1181 q 417 1179 414 1181 q 422 1178 419 1178 q 429 1176 426 1176 q 440 1168 431 1176 q 454 1157 450 1160 q 463 1144 458 1151 q 467 1133 467 1136 l 467 785 q 476 757 467 782 q 492 718 486 732 q 497 707 492 715 q 503 694 501 699 q 511 687 506 693 q 523 673 517 681 q 535 658 529 665 q 542 650 540 651 l 542 633 l 542 617 q 528 594 538 610 q 510 559 519 578 q 491 524 500 540 q 478 500 482 507 q 471 478 475 494 q 467 457 467 461 l 467 28 q 463 19 464 25 q 458 13 460 17 q 454 8 456 10 q 448 0 453 6 q 440 -6 443 -6 l 403 -6 l 365 -6 l 361 0 q 357 5 358 3 q 353 8 356 7 q 347 19 353 10 q 343 28 344 25 l 343 467 q 337 482 343 469 q 328 500 331 494 q 324 513 328 503 q 318 525 319 522 q 303 542 314 528 q 290 558 293 556 q 284 577 288 564 q 281 593 281 590 l 281 631 l 281 660 z "},"E":{"ha":342,"x_min":19,"x_max":325,"o":"m 25 553 q 22 568 24 561 q 19 590 19 581 q 31 666 19 631 q 63 733 43 701 q 108 790 83 764 q 158 839 133 817 l 158 1167 l 286 1167 l 286 740 q 320 704 315 722 q 325 660 325 686 q 324 652 325 657 q 322 640 324 647 q 319 625 319 633 q 317 602 319 619 q 310 565 314 585 q 303 527 306 544 q 300 506 300 510 q 296 449 297 486 q 292 364 294 411 q 288 265 290 317 q 285 166 286 214 q 282 81 283 118 q 281 26 281 43 q 257 6 275 6 q 224 6 239 6 q 211 4 221 6 q 190 5 201 3 q 168 12 178 7 q 158 26 158 17 l 158 410 l 25 553 m 156 690 q 140 685 147 697 q 126 655 132 674 q 115 619 119 636 q 108 600 111 601 q 114 572 111 583 q 118 551 117 560 q 119 540 119 543 l 153 499 l 156 683 l 156 690 z "},"F":{"ha":597,"x_min":22,"x_max":593,"o":"m 75 1190 q 85 1188 79 1190 q 93 1186 92 1186 l 100 1183 q 108 1176 107 1181 q 115 1172 111 1176 q 119 1167 118 1167 q 128 1151 122 1160 l 133 1143 l 133 969 q 144 967 136 969 q 154 967 153 964 q 163 971 156 967 q 178 980 169 975 q 194 991 186 985 q 207 1000 203 997 q 219 1008 208 1000 q 233 1019 229 1017 q 238 1027 233 1024 q 242 1033 242 1031 q 256 1053 247 1040 q 272 1078 264 1065 q 287 1099 281 1090 q 293 1110 293 1108 q 297 1119 294 1111 q 303 1137 300 1126 q 308 1156 306 1147 q 313 1167 311 1164 l 319 1176 q 331 1183 325 1181 q 338 1186 336 1186 q 342 1189 339 1186 q 344 1190 343 1189 q 347 1190 344 1190 q 349 1190 347 1190 q 353 1189 350 1189 q 357 1186 354 1186 l 364 1183 q 372 1176 369 1181 q 379 1169 375 1174 l 383 1167 l 383 1150 l 383 1133 q 378 1119 382 1131 q 371 1093 375 1108 q 363 1064 367 1078 q 357 1043 358 1050 q 351 1032 354 1040 q 347 1019 349 1024 q 340 1010 346 1018 q 328 992 335 1001 q 315 971 321 982 q 304 953 308 960 q 299 948 303 953 q 293 943 296 943 q 276 928 288 939 q 251 908 264 918 q 228 888 239 897 q 214 876 218 878 q 205 870 213 875 q 188 860 197 865 q 172 850 179 856 q 163 843 164 844 q 153 833 160 840 q 146 819 147 825 q 140 811 143 819 q 136 800 138 803 q 133 791 135 797 q 131 781 132 785 q 128 767 129 774 l 128 743 l 128 719 q 131 717 129 718 l 136 710 q 145 703 138 707 q 154 700 153 700 l 158 700 l 163 700 q 176 703 165 700 q 188 710 186 707 q 202 717 192 711 q 224 729 213 722 q 249 743 236 736 q 267 753 261 750 q 278 760 271 757 q 286 767 286 764 q 301 780 290 769 q 324 800 313 790 q 344 820 335 810 q 357 833 353 831 q 365 844 358 835 q 381 864 372 853 q 397 885 389 875 q 408 900 406 894 q 422 916 414 906 q 438 939 429 926 q 453 963 446 951 q 463 976 460 974 q 467 986 464 978 q 474 1004 469 994 q 483 1022 479 1014 q 489 1033 486 1031 q 493 1049 489 1036 q 497 1067 497 1061 q 498 1076 497 1068 q 501 1093 499 1083 q 503 1110 503 1103 q 504 1119 504 1118 q 510 1140 507 1128 q 514 1153 513 1153 q 521 1166 514 1158 q 531 1176 528 1174 q 542 1181 532 1176 q 557 1186 553 1186 l 563 1186 l 568 1186 q 575 1183 569 1186 q 583 1176 581 1181 q 589 1169 586 1172 l 593 1167 l 593 1133 l 593 1100 q 590 1078 593 1094 q 583 1053 586 1061 q 581 1044 583 1051 q 576 1026 579 1036 q 570 1009 572 1017 q 568 1000 568 1001 q 562 983 565 997 q 557 967 558 969 q 554 954 557 961 q 549 943 551 947 q 541 928 547 939 q 527 904 535 917 q 514 881 519 892 q 504 867 508 869 q 497 853 503 864 q 483 833 490 843 q 470 813 476 824 q 463 800 464 803 q 443 775 457 792 q 425 753 429 758 q 417 745 425 751 q 399 729 408 739 q 380 711 390 719 q 364 700 369 703 q 347 685 358 694 q 324 664 336 675 q 301 644 311 653 q 286 633 290 635 q 276 627 283 631 q 267 619 269 624 q 253 614 264 618 q 228 605 242 610 q 203 594 215 600 q 188 586 192 589 q 172 583 186 586 q 154 576 157 581 q 145 566 153 574 q 136 553 138 558 q 131 532 133 549 q 128 510 128 515 l 128 33 q 121 22 128 31 q 108 10 114 14 q 97 3 107 7 q 83 0 86 0 l 75 0 l 67 0 q 53 3 64 0 q 42 10 43 7 q 35 15 39 10 q 31 19 32 19 l 22 43 l 22 1143 q 25 1154 22 1147 q 31 1167 28 1161 q 35 1172 32 1167 q 42 1176 39 1176 q 50 1183 43 1181 l 57 1186 q 65 1188 58 1186 q 75 1190 71 1190 z "},"I":{"ha":193,"x_min":19,"x_max":174,"o":"m 132 1181 l 147 1144 q 148 1062 147 1118 q 150 933 149 1006 q 153 782 151 861 q 157 631 156 703 q 159 503 158 560 q 160 422 160 447 q 174 281 174 344 q 166 168 174 218 q 147 83 158 118 q 126 25 136 47 q 113 -3 117 3 q 118 3 110 -8 q 97 2 108 3 q 75 4 85 1 q 58 13 65 7 q 49 32 51 18 q 41 63 46 42 q 31 105 36 83 q 23 145 26 126 q 19 168 19 164 l 29 775 l 35 1114 l 44 1151 l 68 1176 l 132 1181 z "},"J":{"ha":193,"x_min":19,"x_max":174,"o":"m 132 1181 l 147 1144 q 148 1062 147 1118 q 150 933 149 1006 q 153 782 151 861 q 157 631 156 703 q 159 503 158 560 q 160 422 160 447 q 174 281 174 344 q 166 168 174 218 q 147 83 158 118 q 126 25 136 47 q 113 -3 117 3 q 118 3 110 -8 q 97 2 108 3 q 75 4 85 1 q 58 13 65 7 q 49 32 51 18 q 41 63 46 42 q 31 105 36 83 q 23 145 26 126 q 19 168 19 164 l 29 775 l 35 1114 l 44 1151 l 68 1176 l 132 1181 z "},"K":{"ha":547,"x_min":25,"x_max":547,"o":"m 92 1183 q 107 1178 96 1183 q 119 1174 118 1174 q 136 1156 125 1168 q 149 1140 147 1143 l 149 1051 q 151 988 150 1033 q 155 892 153 943 q 158 797 157 842 q 161 733 160 751 q 163 722 158 731 q 169 714 168 714 q 175 711 172 711 q 185 710 179 710 q 192 711 189 710 q 199 714 196 711 q 214 720 203 715 q 237 733 225 725 q 260 747 249 740 q 276 757 271 753 q 285 764 279 758 q 299 776 292 769 q 313 789 307 783 q 324 799 319 794 q 345 822 332 807 q 370 851 358 836 q 391 876 382 865 q 401 886 400 886 q 408 904 403 889 q 419 940 413 919 q 431 983 425 961 q 439 1018 436 1006 q 445 1040 442 1024 q 451 1061 449 1057 q 452 1077 451 1065 q 454 1101 453 1089 q 457 1125 456 1114 q 460 1140 458 1136 q 464 1151 460 1143 q 468 1160 465 1157 q 478 1167 469 1164 q 489 1174 486 1169 l 508 1174 l 526 1174 q 533 1169 529 1174 q 538 1160 536 1164 q 543 1149 539 1158 q 547 1140 546 1143 l 547 1101 l 547 1061 q 544 1036 547 1056 q 539 994 542 1017 q 533 951 536 972 q 526 919 529 931 q 523 903 526 915 q 518 886 519 890 q 510 874 515 883 q 499 855 504 865 q 488 835 493 844 q 481 822 482 825 q 468 808 476 818 q 451 785 460 797 q 433 763 442 774 q 422 747 425 751 q 407 729 417 740 q 388 708 397 718 q 372 690 379 699 q 364 681 364 682 q 346 665 358 675 q 319 645 333 656 q 293 626 306 635 q 276 615 281 617 q 260 606 274 611 q 233 597 247 601 q 206 588 219 592 q 190 582 193 583 q 181 571 188 578 q 169 558 175 564 q 161 546 168 553 q 154 535 154 539 l 154 33 l 146 24 q 138 17 142 19 q 132 10 135 14 q 120 3 126 7 q 111 0 114 0 l 88 0 l 63 0 q 54 3 58 1 q 44 10 47 7 q 39 17 42 14 q 33 24 36 19 q 28 35 32 24 q 25 43 25 40 l 25 1118 q 28 1133 25 1122 q 33 1150 31 1144 q 44 1161 36 1153 q 53 1174 51 1169 q 63 1178 56 1174 q 74 1183 71 1183 l 82 1183 l 92 1183 z "},"L":{"ha":525,"x_min":25,"x_max":526,"o":"m 115 1167 q 129 1162 118 1167 q 143 1153 140 1157 q 167 1138 149 1150 q 213 1110 186 1126 q 268 1076 239 1094 q 322 1042 297 1058 q 367 1015 347 1026 q 392 1000 386 1003 q 399 995 393 999 q 411 988 404 992 q 424 981 418 985 q 431 976 431 978 q 445 968 435 975 q 468 952 456 961 q 492 934 481 943 q 510 919 504 925 q 515 918 513 919 q 519 915 518 917 q 526 910 524 911 l 526 886 l 526 867 q 514 854 524 861 q 499 843 504 847 l 486 843 l 471 843 q 463 847 469 844 q 447 853 456 850 q 431 860 439 857 q 419 867 424 864 q 410 873 418 868 q 394 883 403 878 q 377 894 385 889 q 368 900 369 899 q 344 915 358 906 q 314 932 329 924 q 287 947 299 940 q 274 953 275 953 q 263 960 269 956 q 248 967 256 964 q 233 972 240 969 q 222 976 225 975 l 210 976 l 194 976 q 189 975 192 976 q 182 972 186 974 q 175 967 178 968 l 175 22 q 164 10 175 18 q 143 1 153 1 q 129 0 136 0 q 117 -1 124 -1 q 108 -1 110 -1 q 83 0 99 -1 q 64 1 67 1 q 50 5 61 1 q 36 11 39 8 q 29 24 33 15 q 25 35 25 32 l 25 1133 q 29 1143 25 1136 q 36 1153 33 1150 q 50 1160 39 1157 q 64 1167 61 1164 l 92 1167 l 115 1167 z "},"M":{"ha":576,"x_min":8,"x_max":576,"o":"m 8 1065 q 9 1081 8 1069 q 10 1103 10 1092 q 10 1126 10 1115 q 11 1140 11 1136 q 18 1152 11 1144 q 26 1164 25 1160 l 40 1164 l 53 1164 q 61 1160 54 1164 q 69 1153 68 1157 q 75 1147 72 1150 q 78 1140 78 1143 q 81 1127 79 1136 q 83 1108 82 1118 q 86 1087 85 1097 q 89 1075 88 1076 q 92 1048 90 1065 q 97 1014 94 1031 q 102 983 100 997 q 104 967 104 968 q 108 951 106 961 q 113 931 110 942 q 118 910 115 919 q 122 900 121 901 q 135 878 125 897 q 147 857 146 860 q 157 840 150 853 q 165 825 164 828 q 168 819 165 822 q 174 811 171 815 q 182 803 176 808 q 193 794 188 799 q 203 785 199 789 q 207 778 207 781 l 217 778 l 225 778 q 233 790 229 782 q 238 801 238 799 l 238 1140 q 242 1151 238 1143 q 250 1164 247 1160 q 260 1170 253 1167 q 269 1174 267 1174 q 281 1175 275 1174 q 288 1176 285 1175 q 294 1176 292 1176 q 309 1175 300 1176 q 319 1174 318 1174 q 332 1165 324 1174 q 340 1153 340 1157 l 340 801 q 346 790 340 799 q 353 778 351 782 l 361 778 l 371 778 q 383 790 374 782 q 397 801 393 797 q 406 814 399 806 q 413 825 413 822 q 421 839 415 828 q 433 862 426 850 q 447 884 440 874 q 456 900 453 894 q 461 910 458 903 q 464 924 464 918 q 469 940 465 928 q 475 957 472 953 q 477 981 475 961 q 482 1022 479 1000 q 487 1064 485 1044 q 489 1089 489 1083 q 494 1109 492 1093 q 500 1131 497 1125 q 503 1142 500 1133 q 508 1153 506 1150 l 515 1164 q 525 1170 519 1167 q 533 1174 531 1174 q 538 1175 536 1174 q 541 1176 540 1175 q 543 1176 542 1176 l 551 1174 q 558 1165 554 1169 q 567 1153 564 1156 q 572 1142 569 1150 q 576 1131 575 1133 l 576 1117 l 576 1099 q 574 1073 575 1090 q 572 1038 574 1056 q 569 1006 569 1019 q 567 989 568 992 q 564 973 567 985 q 558 957 561 961 q 549 922 554 943 q 539 882 544 900 q 525 835 533 858 q 519 825 525 833 q 506 807 514 817 q 492 786 499 797 q 481 768 486 775 q 473 757 479 765 q 460 740 467 749 q 447 723 453 731 q 438 714 442 715 q 422 696 435 708 q 404 681 408 683 q 392 675 403 681 q 379 669 381 669 q 370 665 376 669 q 361 660 364 660 q 356 653 358 657 q 349 644 353 649 q 340 636 344 640 l 340 22 l 336 18 q 332 15 333 17 q 328 11 331 14 q 318 5 324 8 q 310 1 313 1 q 301 0 306 0 q 294 -1 297 -1 q 289 -1 292 -1 q 276 0 281 -1 q 269 1 272 0 q 260 5 267 1 q 250 11 254 8 q 243 18 247 15 q 238 22 240 19 l 238 636 q 229 644 233 640 q 217 660 219 656 q 208 665 214 660 q 199 669 201 669 q 186 675 197 669 q 174 681 175 681 q 167 688 172 682 q 154 701 161 693 q 140 715 147 708 q 131 725 133 722 q 118 740 128 728 q 104 758 108 753 q 95 772 101 761 q 82 792 89 782 q 69 812 75 801 q 64 825 64 822 q 58 833 61 825 q 53 844 54 842 q 47 861 51 849 q 40 888 43 874 q 32 917 36 903 q 26 933 28 931 q 23 944 26 936 q 19 957 19 953 q 14 973 17 961 q 11 989 11 985 q 10 999 11 990 q 10 1021 10 1008 q 9 1045 10 1033 q 8 1065 8 1057 z "}," ":{"ha":556,"x_min":0,"x_max":0,"o":""},"N":{"ha":585,"x_min":25,"x_max":585,"o":"m 103 1193 q 113 1192 107 1193 q 126 1192 119 1192 q 143 1190 135 1190 q 158 1187 147 1190 q 175 1181 168 1183 l 188 1169 q 197 1153 192 1165 q 201 1136 201 1140 l 201 781 q 213 764 201 776 q 232 747 225 751 q 242 738 236 743 q 255 728 247 733 q 268 719 263 724 q 275 714 274 715 q 292 705 279 711 q 319 691 304 699 q 348 678 335 683 q 364 669 361 672 q 374 663 365 668 q 393 653 383 658 q 411 644 403 649 q 421 636 419 639 q 429 631 422 635 q 444 625 436 628 q 458 619 451 622 q 465 614 464 615 q 481 603 469 610 q 504 590 492 597 q 526 576 517 582 q 540 568 536 569 l 585 535 l 585 518 l 585 501 q 578 490 585 497 q 571 478 571 482 q 558 473 568 478 q 540 468 547 468 l 531 468 l 526 468 q 503 472 519 468 q 483 478 486 475 q 469 483 478 481 q 451 490 460 486 q 433 497 442 493 q 421 501 425 500 q 411 508 419 503 q 393 519 403 514 q 374 528 383 524 q 364 535 365 533 q 340 549 358 539 q 300 569 321 558 q 260 590 279 581 q 232 603 240 599 l 224 603 l 219 603 q 208 596 215 600 q 201 589 201 592 l 201 44 q 196 35 197 40 q 192 28 193 32 q 188 22 190 25 l 175 11 q 151 5 168 8 q 131 1 133 1 q 119 0 126 1 q 108 -1 111 -1 q 101 -1 104 -1 q 93 0 97 -1 q 86 1 89 0 q 71 5 83 1 q 56 11 58 8 q 37 24 49 17 q 25 35 25 32 l 25 1157 q 30 1164 25 1158 q 42 1175 35 1169 q 56 1185 49 1181 q 69 1190 64 1189 q 85 1192 72 1190 q 103 1193 97 1193 z "},"O":{"ha":508,"x_min":-3,"x_max":485,"o":"m 308 431 q 297 423 306 426 q 286 417 289 419 q 274 408 283 415 q 253 394 264 401 q 234 381 243 386 q 222 374 225 375 q 215 369 221 372 q 203 362 210 365 q 192 355 197 358 q 185 350 186 351 q 176 344 183 349 q 161 334 169 340 q 145 324 153 328 q 136 318 138 319 q 124 313 132 317 q 108 306 117 310 q 93 301 100 303 q 83 299 86 299 q 71 297 76 297 q 61 294 65 294 q 54 294 57 294 q 47 294 51 294 q 36 297 42 294 q 25 299 31 297 q 15 302 21 299 q 8 308 8 306 l 8 336 l 8 364 q 19 372 14 367 q 36 383 29 382 q 46 392 38 385 q 64 406 54 399 q 83 420 74 414 q 99 431 93 426 q 121 445 106 435 q 152 465 136 456 q 181 483 168 475 q 197 494 193 492 q 209 500 199 494 q 222 506 219 506 q 234 513 225 507 q 253 526 243 518 q 274 540 264 533 q 286 549 283 547 q 292 553 286 550 q 305 560 299 557 q 317 567 311 564 q 324 572 322 569 q 330 583 325 575 q 335 593 335 590 l 335 725 q 331 731 332 726 q 326 733 328 732 q 324 735 325 735 l 308 735 l 297 735 q 280 726 294 735 q 260 714 265 718 q 230 694 251 708 q 185 665 208 681 q 140 634 161 649 q 110 614 118 619 q 93 608 108 614 q 72 603 78 603 l 54 603 l 36 603 q 22 608 32 603 q 8 614 11 614 q 4 625 8 617 q -3 636 0 633 l -3 643 l -3 647 q 3 659 -3 651 q 8 669 8 667 q 23 682 14 674 q 42 699 32 690 q 61 716 53 708 q 72 725 69 724 q 103 744 78 728 q 159 780 129 761 q 215 815 189 799 q 249 835 242 832 l 260 844 q 267 849 261 847 q 278 856 272 851 q 290 863 285 860 q 297 867 296 865 q 311 876 303 869 q 325 886 319 882 q 342 900 333 893 l 342 1140 q 349 1151 342 1143 q 361 1164 356 1158 q 367 1169 361 1167 q 372 1174 369 1172 q 390 1175 375 1174 q 414 1176 404 1176 q 422 1176 415 1176 q 433 1175 428 1175 q 447 1174 440 1174 q 458 1168 451 1172 q 469 1158 464 1164 q 480 1147 475 1153 q 485 1140 485 1142 l 485 35 q 474 24 485 32 q 458 11 464 17 q 447 5 456 8 q 436 1 439 1 q 424 0 433 1 q 410 -1 415 -1 q 395 0 404 -1 q 383 1 386 1 q 374 6 378 3 q 361 11 364 8 q 356 15 358 14 q 351 18 353 17 q 346 22 347 19 l 346 383 q 342 399 346 386 q 335 417 338 411 q 329 423 335 419 q 324 431 324 426 l 315 431 l 308 431 z "},"P":{"ha":544,"x_min":11,"x_max":539,"o":"m 19 853 l 11 1144 q 17 1163 11 1157 q 31 1170 24 1168 q 47 1171 39 1172 q 58 1169 54 1169 q 95 1148 82 1169 q 114 1092 108 1126 q 119 1013 119 1057 q 119 925 119 968 q 122 844 119 882 q 136 781 125 806 l 142 781 q 183 806 158 781 q 237 869 208 831 q 296 950 265 907 q 353 1031 326 993 q 403 1094 381 1069 q 439 1119 425 1119 q 454 1119 443 1119 q 465 1111 465 1118 q 481 1099 472 1107 q 494 1078 486 1090 q 508 1043 501 1065 q 501 1027 507 1040 q 489 998 496 1014 q 476 967 482 982 q 465 944 469 951 q 353 800 407 872 q 233 667 300 728 q 228 658 233 664 q 215 644 222 651 q 197 631 208 639 l 197 603 q 206 591 200 600 q 219 570 213 582 q 233 547 226 558 q 242 531 239 536 q 266 492 249 518 q 306 433 283 465 q 353 364 329 400 q 401 296 378 328 q 441 237 424 264 q 465 199 458 210 q 483 172 471 189 q 506 138 494 156 q 525 106 517 119 q 533 90 533 93 q 536 85 535 89 q 538 79 536 82 q 539 74 539 76 q 535 43 539 60 q 524 13 531 26 q 508 -6 518 -1 q 489 0 499 -11 l 465 32 q 433 72 456 43 q 385 132 410 100 q 338 191 360 164 q 308 232 317 218 q 269 291 286 258 q 236 350 253 324 q 200 395 219 376 q 153 414 181 414 l 153 65 q 148 49 153 58 q 138 29 143 39 q 126 13 132 19 q 115 7 119 7 q 99 10 113 3 q 70 29 85 17 q 44 58 56 42 q 32 90 32 75 l 19 783 l 19 853 z "},"Q":{"ha":549,"x_min":25,"x_max":547,"o":"m 92 1183 q 107 1178 96 1183 q 119 1174 118 1174 q 136 1156 125 1168 q 149 1140 147 1143 l 149 1051 q 151 988 150 1033 q 155 892 153 943 q 158 797 157 842 q 161 733 160 751 q 163 722 158 731 q 169 714 168 714 q 175 711 172 711 q 185 710 179 710 q 192 711 189 710 q 199 714 196 711 q 214 720 203 715 q 237 733 225 725 q 260 747 249 740 q 276 757 271 753 q 285 764 279 758 q 299 776 292 769 q 313 789 307 783 q 324 799 319 794 q 345 822 332 807 q 370 851 358 836 q 391 876 382 865 q 401 886 400 886 q 408 904 403 889 q 419 940 413 919 q 431 983 425 961 q 439 1018 436 1006 q 445 1040 442 1024 q 451 1061 449 1057 q 452 1077 451 1065 q 454 1101 453 1089 q 457 1125 456 1114 q 460 1140 458 1136 q 464 1151 460 1143 q 468 1160 465 1157 q 478 1167 469 1164 q 489 1174 486 1169 l 508 1174 l 526 1174 q 533 1169 529 1174 q 538 1160 536 1164 q 543 1149 539 1158 q 547 1140 546 1143 l 547 1101 l 547 1061 q 544 1036 547 1056 q 539 994 542 1017 q 533 951 536 972 q 526 919 529 931 q 523 903 526 915 q 518 886 519 890 q 510 874 515 883 q 499 855 504 865 q 488 835 493 844 q 481 822 482 825 q 468 808 476 818 q 451 785 460 797 q 433 763 442 774 q 422 747 425 751 q 407 729 417 740 q 388 708 397 718 q 372 690 379 699 q 364 681 364 682 q 346 665 358 675 q 319 645 333 656 q 293 626 306 635 q 276 615 281 617 q 260 606 274 611 q 233 597 247 601 q 206 588 219 592 q 190 582 193 583 q 181 571 188 578 q 169 558 175 564 q 161 546 168 553 q 154 535 154 539 l 154 33 l 146 24 q 138 17 142 19 q 132 10 135 14 q 120 3 126 7 q 111 0 114 0 l 88 0 l 63 0 q 54 3 58 1 q 44 10 47 7 q 39 17 42 14 q 33 24 36 19 q 28 35 32 24 q 25 43 25 40 l 25 1118 q 28 1133 25 1122 q 33 1150 31 1144 q 44 1161 36 1153 q 53 1174 51 1169 q 63 1178 56 1174 q 74 1183 71 1183 l 82 1183 l 92 1183 z "},"R":{"ha":561,"x_min":22,"x_max":561,"o":"m 47 32 q 31 206 36 119 q 24 380 25 293 q 23 553 22 467 q 24 728 24 640 q 24 811 24 753 q 26 935 25 869 q 28 1057 26 1000 q 29 1135 29 1114 q 49 1163 35 1158 q 75 1167 63 1167 q 108 1154 92 1167 q 140 1124 125 1142 q 171 1088 156 1107 q 201 1053 186 1068 l 293 949 q 321 913 303 935 q 360 865 339 890 q 398 811 381 839 q 425 761 415 783 q 426 714 425 739 q 426 665 426 689 q 420 622 425 642 q 403 586 415 601 q 380 572 400 581 q 337 553 360 564 q 295 530 314 543 q 276 501 276 517 q 285 456 276 476 q 305 419 293 436 q 329 387 317 401 q 351 357 342 372 q 369 319 356 347 q 399 259 383 292 q 430 199 415 226 q 449 161 444 172 q 485 120 463 140 q 526 81 507 100 q 553 42 544 61 q 547 0 561 22 l 464 0 q 421 22 442 11 q 390 40 404 31 q 375 57 376 50 q 345 101 368 67 q 296 178 322 136 q 247 255 269 219 q 219 300 225 290 q 203 328 208 318 q 192 345 197 339 q 181 358 188 351 q 161 374 175 364 l 158 86 q 157 69 158 83 q 151 40 156 56 q 140 13 147 25 q 121 0 133 0 l 104 0 q 75 7 86 0 q 47 32 64 14 m 144 615 q 170 619 153 615 q 208 632 188 624 q 247 653 228 640 q 276 681 265 665 q 288 717 288 697 q 271 760 288 736 q 262 782 271 764 q 242 822 253 800 q 211 876 228 847 l 144 949 l 144 615 z "},"S":{"ha":464,"x_min":14,"x_max":458,"o":"m 331 740 q 301 713 318 736 q 265 653 285 689 q 224 579 246 618 q 182 508 203 540 q 141 454 161 475 q 103 436 121 433 l 76 436 q 49 436 64 436 q 29 460 33 436 q 27 548 29 485 q 22 682 25 611 q 16 815 18 753 q 14 903 14 878 l 14 1026 l 14 1149 q 31 1174 18 1174 q 56 1174 43 1174 q 69 1174 63 1174 q 84 1174 76 1175 q 97 1166 92 1172 q 103 1149 101 1160 q 113 1056 108 1106 q 118 956 117 1007 q 119 856 119 906 q 119 764 119 807 q 133 736 122 740 q 156 732 143 732 l 172 740 q 193 764 178 744 q 225 804 208 783 q 257 844 242 825 q 278 869 272 864 q 290 894 281 876 q 312 931 300 911 q 333 966 324 950 q 346 985 343 982 l 378 985 q 393 981 381 985 q 420 969 406 976 q 447 950 435 961 q 458 924 458 939 l 429 -1 l 351 1 q 333 14 338 0 q 326 48 328 28 q 326 89 325 68 q 328 124 328 110 q 328 192 328 143 q 330 302 329 240 q 331 432 331 364 q 331 562 331 500 q 331 671 332 624 q 331 740 331 718 z "},"T":{"ha":526,"x_min":4,"x_max":507,"o":"m 308 1006 q 299 1001 306 1003 q 283 994 292 999 q 266 987 274 990 q 253 981 258 983 q 241 974 251 981 q 216 958 231 967 q 187 941 201 950 q 164 926 172 932 q 153 920 161 925 q 137 909 146 915 q 120 898 128 903 q 111 893 113 893 q 99 886 107 890 q 82 878 90 882 q 66 872 74 875 q 56 867 58 868 l 44 867 l 32 867 q 15 878 26 869 q 4 893 4 886 l 4 911 l 4 936 q 8 942 7 939 q 13 945 11 943 q 15 947 14 947 q 36 962 24 951 q 62 981 49 972 q 84 997 75 990 q 96 1006 93 1003 q 103 1010 97 1007 q 115 1017 108 1014 q 126 1024 121 1019 q 135 1031 132 1028 q 161 1045 142 1033 q 206 1074 181 1057 q 261 1108 232 1090 q 316 1142 290 1125 q 361 1170 342 1158 q 388 1185 381 1182 q 394 1189 390 1186 q 401 1194 397 1192 q 413 1200 406 1199 l 439 1200 l 467 1200 q 481 1193 469 1197 q 492 1185 492 1189 q 500 1175 493 1182 q 507 1167 507 1168 l 507 36 q 500 25 507 33 q 492 14 493 17 q 478 6 488 10 q 467 3 469 3 q 448 1 464 3 q 424 0 432 0 q 413 0 419 0 q 401 1 407 0 q 388 3 394 1 q 366 11 379 3 q 353 24 353 19 l 353 994 l 346 1000 q 338 1003 342 1001 q 332 1006 335 1006 l 319 1006 l 308 1006 z "},"U":{"ha":560,"x_min":18,"x_max":549,"o":"m 32 39 q 28 99 31 56 q 23 192 25 143 q 19 283 21 240 q 18 344 18 326 q 20 372 18 350 q 25 422 22 394 q 30 471 28 449 q 32 499 32 493 l 32 560 l 32 628 q 31 675 32 640 q 28 758 31 710 q 25 858 26 806 q 22 959 24 911 q 19 1042 19 1007 q 18 1089 18 1076 l 18 1103 l 18 1111 q 24 1126 19 1117 q 35 1144 29 1135 q 46 1159 42 1153 q 53 1165 50 1165 q 74 1160 61 1167 q 97 1140 86 1153 q 118 1114 108 1128 q 131 1089 128 1100 q 147 1043 135 1081 q 172 962 158 1006 q 199 881 186 918 q 214 835 211 843 q 258 756 232 803 q 312 658 283 710 q 369 547 340 606 q 422 433 397 489 q 467 325 447 376 q 496 233 486 274 q 520 170 510 190 q 537 131 531 150 q 546 84 543 111 q 549 0 549 57 q 520 -8 532 0 q 498 -17 508 -15 q 474 -9 488 -19 q 440 38 461 1 q 389 141 419 74 q 314 322 358 208 q 264 425 292 381 q 214 528 236 469 q 201 560 211 536 q 181 610 192 585 q 156 655 169 635 q 136 675 143 675 q 135 624 136 660 q 133 549 135 589 q 131 472 132 508 q 131 422 131 436 q 135 372 132 414 q 140 283 138 331 q 145 194 143 235 q 150 144 147 153 l 150 85 q 147 44 150 58 q 138 24 144 31 q 119 16 131 17 q 92 15 108 15 q 78 13 88 15 q 60 13 69 11 q 43 19 51 14 q 32 39 35 24 z "},"V":{"ha":578,"x_min":19,"x_max":575,"o":"m 69 1186 q 82 1186 74 1186 q 90 1183 90 1186 q 109 1167 97 1181 q 121 1149 121 1153 l 121 911 l 131 908 q 137 905 133 907 q 142 901 140 903 l 150 901 l 160 901 q 167 907 164 903 q 172 910 169 908 q 175 911 175 911 q 195 929 182 918 q 220 951 208 940 q 242 969 232 961 q 253 981 251 978 q 265 996 256 983 q 281 1014 275 1008 q 292 1031 285 1019 q 306 1053 299 1042 q 317 1072 313 1064 q 324 1082 322 1081 q 328 1094 325 1083 q 333 1117 331 1106 q 339 1138 336 1128 q 342 1149 342 1147 q 354 1167 344 1153 q 368 1183 364 1181 q 372 1185 369 1183 q 376 1185 375 1185 q 378 1186 376 1186 q 387 1185 382 1186 q 393 1183 392 1183 q 401 1179 396 1183 q 408 1172 407 1175 q 410 1158 408 1168 q 413 1144 413 1149 q 410 1129 413 1140 q 408 1115 408 1118 l 401 1094 q 398 1083 400 1092 q 392 1066 396 1075 q 387 1048 389 1057 q 383 1036 385 1039 q 379 1026 382 1033 q 375 1011 376 1019 q 368 993 371 1003 q 354 974 364 989 q 332 943 344 960 q 308 913 319 926 q 290 892 296 899 q 278 881 288 889 q 264 868 268 872 q 251 859 260 865 q 233 846 242 853 q 215 833 224 839 q 203 825 206 826 q 192 819 200 824 q 176 808 185 814 q 159 797 167 801 q 150 790 151 792 q 142 778 147 786 q 135 767 136 769 q 128 756 132 764 q 124 743 125 747 l 124 726 l 124 710 q 128 703 125 707 q 135 700 132 700 l 154 700 l 175 700 q 196 713 181 703 q 228 733 211 724 q 260 753 244 743 q 281 767 275 764 q 298 783 283 769 q 315 800 313 797 q 329 813 318 803 q 342 825 340 822 q 359 846 347 831 q 384 879 371 861 q 410 914 397 897 q 428 936 422 931 q 441 958 431 942 q 453 981 451 975 q 458 991 454 982 q 465 1011 461 1000 q 474 1032 469 1022 q 481 1047 478 1042 q 484 1063 481 1050 q 488 1082 488 1076 q 493 1105 490 1086 q 497 1128 496 1124 q 501 1146 497 1133 q 506 1161 506 1158 q 515 1174 508 1165 q 524 1183 521 1183 q 531 1185 526 1183 q 535 1185 532 1185 q 539 1186 538 1186 q 544 1185 542 1186 q 550 1185 547 1185 q 558 1183 554 1183 q 567 1174 561 1183 q 575 1161 574 1165 l 575 1132 l 575 1094 q 571 1069 574 1086 q 565 1047 568 1051 q 556 1019 564 1039 q 540 979 549 1000 q 524 938 532 958 q 514 911 517 918 q 503 892 514 908 q 488 868 493 876 q 478 853 486 865 q 458 824 469 840 q 436 791 447 807 q 419 767 425 775 q 415 760 418 764 q 408 757 411 757 q 394 742 404 751 q 374 721 385 732 q 355 701 364 710 q 342 690 346 692 q 333 682 340 686 q 324 675 325 678 q 314 667 321 674 q 298 652 307 660 q 281 639 289 644 q 272 632 274 633 q 263 626 267 628 q 246 622 253 622 q 235 617 243 619 q 216 610 226 614 q 197 603 206 607 q 186 599 188 600 q 167 586 181 594 q 150 575 153 578 q 138 558 147 572 q 124 540 128 544 q 119 528 119 535 q 115 519 117 524 l 115 24 q 114 18 114 19 q 108 14 111 14 q 98 5 104 10 q 90 0 92 0 l 69 0 l 46 0 q 38 6 43 3 q 31 14 32 10 q 24 24 28 17 q 19 33 19 31 l 19 1139 q 24 1149 19 1142 q 31 1161 28 1157 q 33 1167 31 1164 q 39 1174 36 1169 l 46 1183 q 56 1186 47 1186 q 69 1186 65 1186 m 169 1142 q 169 1200 165 1182 q 178 1224 172 1218 q 189 1231 183 1231 q 194 1240 194 1232 q 203 1242 197 1240 q 209 1242 206 1242 q 214 1243 213 1243 q 227 1242 219 1243 q 238 1240 235 1240 q 240 1228 238 1236 q 246 1217 243 1219 q 255 1200 247 1214 q 264 1183 263 1186 q 266 1177 265 1181 q 269 1169 267 1174 q 272 1161 269 1165 l 272 1149 l 272 1139 q 268 1126 272 1135 q 264 1115 264 1118 q 245 1091 258 1107 q 228 1072 232 1075 q 222 1069 225 1069 q 214 1068 219 1068 q 208 1070 213 1068 q 203 1072 204 1072 l 169 1142 z "},"W":{"ha":558,"x_min":15,"x_max":547,"o":"m 31 39 q 26 99 28 56 q 22 192 24 143 q 17 283 19 240 q 15 344 15 326 q 17 372 15 350 q 22 422 19 394 q 28 471 25 449 q 31 499 31 493 l 31 560 l 31 628 q 29 675 31 640 q 26 758 28 710 q 23 858 25 806 q 19 959 21 911 q 17 1042 18 1007 q 15 1089 15 1076 l 15 1103 l 15 1111 q 22 1126 17 1117 q 33 1144 26 1135 q 43 1159 39 1153 q 50 1165 47 1165 q 71 1160 58 1167 q 95 1140 83 1153 q 116 1114 107 1128 q 129 1089 125 1100 q 144 1043 132 1081 q 171 962 157 1006 q 197 881 185 918 q 213 835 208 843 q 256 756 231 803 q 309 658 281 710 q 366 547 338 606 q 420 433 394 489 q 465 325 446 376 q 493 233 485 274 q 518 170 508 190 q 535 131 528 150 q 544 84 542 111 q 547 0 547 57 q 519 -8 531 0 q 497 -17 507 -15 q 472 -9 486 -19 q 438 38 458 1 q 388 141 418 74 q 311 322 357 208 q 262 425 289 381 q 213 528 235 469 q 199 560 208 536 q 178 610 190 585 q 154 655 167 635 q 133 675 142 675 q 133 624 133 660 q 131 549 132 589 q 130 472 131 508 q 129 422 129 436 q 133 372 131 414 q 139 283 136 331 q 144 194 142 235 q 147 144 146 153 l 147 85 q 144 44 147 58 q 135 24 142 31 q 117 16 128 17 q 89 15 106 15 q 77 13 86 15 q 58 13 68 11 q 40 19 49 14 q 31 39 32 24 z "},"X":{"ha":596,"x_min":3,"x_max":592,"o":"m 253 33 q 251 83 253 49 q 245 154 249 117 q 239 225 242 192 q 235 269 236 258 q 232 289 235 276 q 224 314 229 301 q 217 338 219 326 q 214 353 214 350 l 203 353 l 190 353 q 167 338 186 350 q 128 312 149 325 q 88 286 107 299 q 65 269 69 274 l 46 269 q 19 273 36 269 q 3 294 3 276 q 17 348 3 326 q 50 385 31 369 q 92 410 69 400 q 126 432 114 419 l 235 489 l 214 775 q 206 778 208 775 q 203 783 204 781 l 190 775 q 167 756 186 772 q 128 723 149 740 q 88 690 107 706 q 65 672 69 674 l 58 672 l 46 672 q 36 696 46 676 q 26 726 26 715 l 26 735 q 53 798 26 772 q 111 846 79 824 q 174 890 143 868 q 214 935 206 911 q 222 1013 225 968 q 212 1103 218 1058 q 208 1181 206 1147 q 239 1222 211 1214 q 301 1206 279 1222 q 334 1163 322 1190 q 350 1097 346 1136 q 358 1015 354 1058 q 392 1040 368 1024 q 443 1074 417 1056 q 494 1106 469 1092 q 528 1126 519 1119 q 543 1117 533 1126 q 557 1107 553 1107 l 568 1028 l 358 885 l 358 586 q 413 605 386 586 q 465 648 440 624 q 514 695 489 672 q 565 726 539 718 q 572 722 568 726 q 581 715 575 718 q 592 701 586 708 q 567 606 592 647 q 508 537 543 565 q 432 490 472 508 q 358 456 392 472 l 358 33 q 351 13 358 19 q 335 4 344 7 q 319 1 326 1 q 310 0 311 0 q 276 4 293 0 q 253 33 258 8 z "},"Y":{"ha":611,"x_min":14,"x_max":604,"o":"m 231 401 q 226 400 229 401 q 219 399 222 399 q 206 385 213 392 q 194 374 200 381 q 186 365 188 368 q 181 362 183 365 q 178 356 178 358 q 168 338 175 351 q 158 322 161 325 q 154 313 158 319 q 146 299 150 307 q 138 286 142 292 q 132 278 133 281 q 128 267 131 275 q 122 249 125 258 q 117 228 119 239 q 114 214 114 218 q 111 196 114 210 q 106 165 108 182 q 100 128 103 147 q 97 100 97 110 q 94 88 96 97 q 92 67 93 78 q 89 47 90 57 q 86 35 88 36 q 83 32 85 33 q 81 28 81 31 q 79 25 81 26 q 69 19 76 22 q 60 15 63 15 q 54 14 58 14 q 47 11 51 11 q 39 14 42 11 q 33 15 36 14 q 24 24 31 15 q 17 35 17 32 q 16 51 17 40 q 15 74 15 61 q 15 97 15 86 q 14 114 14 108 q 15 132 14 119 q 15 157 15 144 q 16 179 15 169 q 17 190 17 189 q 20 206 17 193 q 25 224 24 218 q 29 235 25 226 q 33 247 33 243 q 38 262 35 249 q 47 289 42 275 q 55 315 51 303 q 60 332 58 328 q 65 344 63 336 q 69 356 68 351 q 77 366 71 357 q 90 386 83 375 q 103 407 97 397 q 114 422 110 417 q 128 438 118 425 q 140 453 138 450 q 151 463 144 457 q 166 477 158 469 q 179 490 174 485 q 186 497 185 494 q 199 503 188 500 q 213 510 210 507 q 222 515 214 510 q 231 519 229 519 q 244 533 235 525 q 253 543 253 540 l 253 1157 l 265 1169 q 276 1177 269 1174 q 285 1181 282 1181 l 306 1181 l 326 1181 q 335 1177 329 1181 q 346 1169 342 1174 q 350 1167 347 1168 q 354 1161 353 1165 q 358 1157 357 1158 l 358 543 q 367 533 358 540 q 381 519 375 525 q 390 515 382 519 q 399 510 397 510 q 413 503 401 507 q 425 497 424 500 q 443 481 431 493 q 460 464 456 468 q 469 453 464 460 q 483 439 475 447 q 497 423 490 431 q 506 411 503 415 q 517 394 510 406 q 532 374 525 383 q 544 356 539 364 q 551 344 550 347 q 555 329 551 343 q 564 296 558 315 q 576 256 569 276 q 586 224 582 236 q 588 214 586 219 q 592 203 590 208 l 593 190 q 596 172 594 186 q 599 141 597 158 q 602 107 601 124 q 604 82 603 90 l 604 61 l 604 49 q 599 36 603 44 q 593 25 596 28 q 585 13 592 19 q 578 1 578 6 l 569 1 l 558 1 q 551 8 557 6 q 540 15 544 11 l 536 18 q 532 25 532 19 q 528 36 531 28 q 525 49 525 44 q 522 56 524 50 q 519 68 521 61 q 516 82 518 75 q 514 90 514 89 q 511 114 514 94 q 506 156 508 133 q 500 198 503 178 q 497 224 497 218 q 492 239 496 226 q 486 256 489 251 q 483 267 486 258 q 479 278 481 275 q 469 294 475 283 q 456 318 464 306 q 442 341 449 331 q 433 356 436 351 q 426 367 433 358 q 418 378 419 375 q 403 390 414 382 q 392 399 393 399 q 385 400 389 399 q 381 401 382 401 q 378 401 379 401 q 375 400 376 400 q 372 399 374 399 q 364 388 369 394 q 358 378 358 382 l 358 25 q 350 14 358 22 q 338 1 342 6 l 311 1 l 285 1 q 275 6 282 1 q 265 15 268 11 q 262 20 264 17 q 258 26 260 24 l 253 35 l 253 378 q 248 388 253 382 q 239 399 243 394 q 236 400 236 399 q 233 401 233 400 q 231 401 232 401 z "},"Z":{"ha":771,"x_min":8,"x_max":775,"o":"m 503 385 q 476 370 488 385 q 454 335 465 356 q 433 299 443 315 q 413 275 422 282 q 392 280 403 268 q 371 331 381 292 q 371 383 358 353 q 406 444 383 414 q 455 501 429 474 q 497 547 481 528 l 497 822 l 476 822 q 356 640 419 728 q 224 468 292 551 l 214 465 q 199 461 203 461 q 144 547 153 461 q 140 590 142 558 q 134 658 138 622 q 128 728 131 694 q 124 776 125 761 l 119 776 q 78 703 92 732 q 56 664 64 675 q 38 659 47 653 q 8 690 28 665 l 8 747 q 15 809 8 783 q 33 855 21 835 q 61 892 46 875 q 93 931 76 910 q 103 941 97 933 q 117 957 110 949 l 133 976 l 144 1207 q 157 1218 150 1215 q 172 1220 164 1222 q 194 1208 181 1218 q 213 1180 211 1203 q 210 1131 214 1157 q 208 1082 207 1106 q 224 1053 208 1058 q 243 1085 232 1068 q 269 1115 254 1101 q 297 1136 283 1128 q 325 1144 311 1144 l 335 1078 q 313 1049 329 1074 q 279 994 297 1024 q 245 938 261 965 q 224 900 229 911 q 211 869 214 885 q 208 835 208 853 q 208 800 207 818 q 208 761 208 782 l 208 668 q 224 649 214 651 q 244 647 233 647 l 260 647 l 511 1031 q 525 1033 518 1032 q 536 1035 531 1035 q 547 1036 542 1036 q 564 1033 550 1036 l 578 1031 q 583 1015 579 1026 q 589 986 586 1003 q 594 954 592 969 q 597 931 597 939 q 594 910 597 925 q 589 876 592 894 q 583 842 586 858 q 578 822 579 826 l 578 800 l 578 776 q 579 752 579 772 q 579 711 579 732 q 579 670 579 690 q 581 644 579 650 q 645 740 608 697 q 729 783 682 783 q 772 747 768 767 q 758 704 775 728 q 711 649 742 681 q 650 575 681 617 q 597 481 619 533 q 575 361 575 428 q 575 347 575 358 q 575 323 575 336 q 576 299 575 310 q 578 285 578 289 q 579 239 578 258 q 581 200 581 218 q 581 168 581 182 q 581 120 581 149 q 580 65 582 92 q 567 19 578 39 q 536 0 557 0 q 524 1 533 0 q 511 7 515 1 q 507 40 510 15 q 502 92 504 65 q 499 146 500 119 q 497 185 497 172 q 494 225 493 197 q 497 284 496 253 q 501 344 499 315 q 503 385 503 372 z "},"þ":{"ha":508,"x_min":19,"x_max":500,"o":"m 81 1200 q 90 1199 83 1200 q 99 1197 97 1197 q 118 1181 106 1193 q 131 1164 131 1168 l 131 960 l 146 950 q 162 949 150 950 q 185 945 174 947 q 208 942 197 943 q 225 940 219 940 q 244 937 232 939 q 267 932 256 935 q 292 926 279 928 q 315 917 300 924 q 348 901 331 910 q 380 885 365 893 q 400 874 394 876 q 408 865 401 872 q 422 848 414 857 q 438 829 431 839 q 450 815 446 819 q 464 794 453 811 q 481 772 475 776 q 484 760 481 768 q 488 749 488 751 q 494 730 490 743 q 497 714 497 717 q 497 702 497 711 q 498 681 497 693 q 499 656 499 668 q 500 636 500 643 q 499 615 500 628 q 498 590 499 603 q 497 567 497 576 q 497 556 497 557 q 494 539 497 551 q 488 522 490 526 q 483 514 486 519 q 474 501 479 508 q 465 487 469 493 q 458 478 461 481 q 447 465 456 475 q 429 444 439 456 q 411 424 419 433 q 400 410 403 414 q 392 402 397 407 q 381 392 386 397 q 369 382 375 386 q 363 376 364 378 q 345 366 358 374 q 316 349 332 358 q 285 331 300 340 q 264 318 271 322 q 250 313 261 318 q 233 308 239 308 q 222 307 231 308 q 204 303 214 306 q 186 300 194 301 q 175 299 178 299 q 167 292 175 294 q 158 285 160 289 q 151 281 156 285 q 146 275 147 278 q 137 257 143 269 q 131 242 131 244 l 131 15 q 125 11 129 14 q 122 8 124 10 q 117 6 119 7 q 103 -2 114 1 q 88 -6 92 -6 l 79 -6 l 69 -6 q 57 -2 68 -6 q 40 6 46 1 q 34 8 38 7 q 28 11 31 10 q 19 15 24 14 l 19 1164 q 28 1175 19 1167 q 40 1186 36 1183 q 49 1194 42 1190 q 58 1197 56 1197 q 68 1199 60 1197 q 81 1200 76 1200 m 136 453 q 140 443 136 450 q 146 433 143 436 q 156 425 147 431 q 167 419 164 419 q 187 425 169 419 q 215 433 204 431 q 238 438 222 433 q 254 443 253 443 q 273 454 258 447 q 292 468 288 461 q 300 474 294 469 q 313 483 306 478 q 325 494 319 489 q 333 501 331 499 q 344 514 336 506 q 359 531 351 522 q 373 547 367 540 q 381 556 379 553 q 386 571 382 558 q 392 589 390 583 l 392 631 l 392 669 q 386 694 390 678 q 381 714 382 710 q 370 726 379 715 q 351 750 361 736 q 329 775 340 764 q 313 792 318 786 q 303 798 310 794 q 292 806 297 801 q 281 807 289 806 q 263 810 272 808 q 244 813 253 811 q 233 815 236 815 l 181 815 l 146 815 l 136 792 l 136 453 z "},"b":{"ha":463,"x_min":19,"x_max":449,"o":"m 25 503 q 22 614 25 551 q 19 745 19 676 q 22 881 19 814 q 31 1005 24 949 q 54 1102 39 1061 q 96 1158 69 1143 l 113 1164 q 139 1135 114 1164 q 197 1069 164 1107 q 265 990 231 1031 q 322 922 300 949 q 344 893 333 906 q 362 866 354 881 q 375 837 369 851 q 381 800 381 822 q 369 740 381 767 q 342 690 358 714 q 305 646 325 667 q 268 604 285 625 q 240 560 251 583 q 229 510 229 536 q 398 322 347 401 q 431 182 449 242 q 329 78 414 122 q 92 -3 244 33 q 44 19 64 -3 q 25 94 25 42 l 25 503 m 125 167 q 142 181 131 172 q 158 189 154 189 l 169 189 q 186 206 175 193 q 210 233 197 218 q 233 263 222 249 q 247 285 243 276 q 201 350 231 324 q 144 376 172 376 l 125 376 l 125 167 m 125 568 l 247 751 l 247 786 q 233 844 247 818 q 200 890 219 869 q 160 929 181 911 q 125 961 139 947 l 125 568 z "},"H":{"ha":618,"x_min":14,"x_max":608,"o":"m 236 451 q 228 442 235 449 q 213 429 221 436 q 199 415 206 422 q 190 406 192 408 q 172 385 186 401 q 142 350 158 368 q 110 315 125 332 q 92 294 96 299 q 83 288 89 292 q 75 285 76 285 q 65 283 72 285 q 54 282 57 282 q 42 283 49 282 q 33 285 36 285 q 24 293 31 285 q 17 306 17 301 q 14 314 14 308 q 14 325 14 319 q 14 333 14 328 q 17 339 14 339 l 219 572 q 224 584 219 575 q 228 597 228 593 l 228 603 l 228 607 q 222 626 225 617 q 219 640 219 633 l 17 874 q 14 881 15 875 q 14 887 14 883 q 14 893 14 890 q 15 908 14 899 q 17 919 17 917 q 19 927 17 924 q 25 931 22 931 l 51 931 l 75 931 q 88 921 76 931 q 103 907 99 911 q 121 886 107 903 q 151 851 135 869 q 182 817 168 833 q 199 797 196 800 q 207 788 201 793 q 219 778 213 783 q 231 769 225 774 q 236 764 236 765 q 250 765 242 760 q 263 769 258 769 l 263 1140 q 272 1151 263 1143 q 286 1164 281 1158 q 296 1170 288 1167 q 307 1174 304 1174 q 310 1175 308 1174 q 313 1176 311 1175 q 314 1176 314 1176 q 317 1176 315 1176 q 319 1175 318 1175 q 324 1174 322 1174 q 333 1170 325 1174 q 344 1164 342 1167 q 362 1146 350 1158 q 374 1131 374 1133 l 374 807 q 376 799 375 803 q 381 786 378 790 q 388 780 383 783 q 393 774 392 776 l 396 774 l 403 774 q 413 780 407 776 q 422 786 419 783 l 538 919 q 546 925 542 922 q 551 928 549 926 q 556 931 553 931 l 569 931 l 585 931 q 590 927 586 931 q 597 919 594 924 q 601 908 597 915 q 604 897 604 900 l 604 883 l 604 874 l 411 653 q 407 642 411 650 q 403 631 403 633 l 403 597 l 403 572 l 604 339 q 606 333 604 336 q 608 325 608 326 q 606 314 608 319 q 604 306 604 308 q 596 293 603 301 q 585 285 589 285 q 577 282 585 282 q 564 282 569 282 q 553 282 560 282 q 547 285 547 282 l 422 428 q 413 435 419 432 q 403 439 407 439 l 396 439 l 393 439 q 388 435 392 439 q 381 428 383 432 q 376 417 379 425 q 374 406 374 408 l 374 28 q 370 17 374 25 q 364 6 367 8 q 355 -2 363 1 q 344 -6 347 -6 l 313 -6 l 286 -6 q 272 6 281 -1 q 263 18 263 14 l 263 439 q 256 445 263 442 q 247 451 250 449 l 242 451 l 236 451 z "},"Ð":{"ha":503,"x_min":15,"x_max":496,"o":"m 76 1200 q 85 1199 79 1200 q 94 1197 92 1197 q 114 1181 101 1193 q 126 1164 126 1168 l 126 960 l 142 950 q 158 949 146 950 q 181 945 169 947 q 204 942 193 943 q 219 940 215 940 q 240 937 228 939 q 263 932 251 935 q 288 926 275 928 q 311 917 296 924 q 344 901 326 910 q 376 885 361 893 q 396 874 390 876 q 403 865 397 872 q 417 848 410 857 q 433 829 425 839 q 446 815 442 819 q 458 794 447 811 q 475 772 469 776 q 479 760 475 768 q 483 749 483 751 q 489 730 486 743 q 492 714 492 717 q 492 702 492 711 q 494 681 493 693 q 495 656 494 668 q 496 636 496 643 q 495 615 496 628 q 494 590 494 603 q 492 567 493 576 q 492 556 492 557 q 489 539 492 551 q 483 522 486 526 q 478 514 482 519 q 470 501 475 508 q 461 487 465 493 q 454 478 457 481 q 443 465 451 475 q 425 444 435 456 q 407 424 415 433 q 396 410 399 414 q 388 402 393 407 q 376 392 382 397 q 364 382 369 386 q 358 376 358 378 q 340 366 353 374 q 312 349 328 358 q 281 331 296 340 q 258 318 267 322 q 246 313 257 318 q 229 308 235 308 q 218 307 226 308 q 200 303 210 306 q 182 300 190 301 q 171 299 174 299 q 163 292 171 294 q 153 285 156 289 q 147 281 151 285 q 142 275 143 278 q 133 257 139 269 q 126 242 126 244 l 126 15 q 121 11 125 14 q 117 8 119 10 q 113 6 114 7 q 99 -2 110 1 q 83 -6 88 -6 l 75 -6 l 65 -6 q 53 -2 64 -6 q 36 6 42 1 q 30 8 33 7 q 24 11 26 10 q 15 15 19 14 l 15 1164 q 23 1175 15 1167 q 36 1186 31 1183 q 44 1194 38 1190 q 53 1197 51 1197 q 64 1199 56 1197 q 76 1200 72 1200 m 132 453 q 135 443 132 450 q 142 433 139 436 q 151 425 143 431 q 163 419 160 419 q 182 425 164 419 q 211 433 200 431 q 233 438 218 433 q 250 443 247 443 q 269 454 254 447 q 288 468 283 461 q 296 474 290 469 q 308 483 301 478 q 320 494 314 489 q 329 501 326 499 q 340 514 332 506 q 355 531 347 522 q 369 547 363 540 q 375 556 375 553 q 382 571 378 558 q 388 589 386 583 l 388 631 l 388 669 q 382 694 386 678 q 375 714 378 710 q 366 726 375 715 q 347 750 357 736 q 325 775 336 764 q 308 792 314 786 q 299 798 306 794 q 288 806 292 801 q 276 807 285 806 q 258 810 268 808 q 240 813 249 811 q 229 815 232 815 l 176 815 l 142 815 l 132 792 l 132 453 m 181 633 q 181 647 181 642 q 182 657 181 651 q 189 668 182 660 q 200 681 196 676 q 218 692 207 685 q 229 703 229 700 l 250 703 l 269 703 q 281 693 275 699 q 292 687 286 690 q 300 681 297 683 l 308 669 q 313 658 310 665 q 317 647 317 650 q 318 640 317 643 q 319 631 319 633 q 318 619 319 626 q 317 614 317 617 q 313 601 317 610 q 308 589 310 592 q 298 578 306 585 q 288 568 290 572 q 279 560 286 565 q 269 556 272 556 l 250 556 l 229 556 q 210 567 225 558 q 192 578 196 575 q 185 590 189 582 q 182 603 182 597 q 181 615 181 608 q 181 633 181 622 z "},"Þ":{"ha":508,"x_min":19,"x_max":500,"o":"m 81 1200 q 90 1199 83 1200 q 99 1197 97 1197 q 118 1181 106 1193 q 131 1164 131 1168 l 131 960 l 146 950 q 162 949 150 950 q 185 945 174 947 q 208 942 197 943 q 225 940 219 940 q 244 937 232 939 q 267 932 256 935 q 292 926 279 928 q 315 917 300 924 q 348 901 331 910 q 380 885 365 893 q 400 874 394 876 q 408 865 401 872 q 422 848 414 857 q 438 829 431 839 q 450 815 446 819 q 464 794 453 811 q 481 772 475 776 q 484 760 481 768 q 488 749 488 751 q 494 730 490 743 q 497 714 497 717 q 497 702 497 711 q 498 681 497 693 q 499 656 499 668 q 500 636 500 643 q 499 615 500 628 q 498 590 499 603 q 497 567 497 576 q 497 556 497 557 q 494 539 497 551 q 488 522 490 526 q 483 514 486 519 q 474 501 479 508 q 465 487 469 493 q 458 478 461 481 q 447 465 456 475 q 429 444 439 456 q 411 424 419 433 q 400 410 403 414 q 392 402 397 407 q 381 392 386 397 q 369 382 375 386 q 363 376 364 378 q 345 366 358 374 q 316 349 332 358 q 285 331 300 340 q 264 318 271 322 q 250 313 261 318 q 233 308 239 308 q 222 307 231 308 q 204 303 214 306 q 186 300 194 301 q 175 299 178 299 q 167 292 175 294 q 158 285 160 289 q 151 281 156 285 q 146 275 147 278 q 137 257 143 269 q 131 242 131 244 l 131 15 q 125 11 129 14 q 122 8 124 10 q 117 6 119 7 q 103 -2 114 1 q 88 -6 92 -6 l 79 -6 l 69 -6 q 57 -2 68 -6 q 40 6 46 1 q 34 8 38 7 q 28 11 31 10 q 19 15 24 14 l 19 1164 q 28 1175 19 1167 q 40 1186 36 1183 q 49 1194 42 1190 q 58 1197 56 1197 q 68 1199 60 1197 q 81 1200 76 1200 m 136 453 q 140 443 136 450 q 146 433 143 436 q 156 425 147 431 q 167 419 164 419 q 187 425 169 419 q 215 433 204 431 q 238 438 222 433 q 254 443 253 443 q 273 454 258 447 q 292 468 288 461 q 300 474 294 469 q 313 483 306 478 q 325 494 319 489 q 333 501 331 499 q 344 514 336 506 q 359 531 351 522 q 373 547 367 540 q 381 556 379 553 q 386 571 382 558 q 392 589 390 583 l 392 631 l 392 669 q 386 694 390 678 q 381 714 382 710 q 370 726 379 715 q 351 750 361 736 q 329 775 340 764 q 313 792 318 786 q 303 798 310 794 q 292 806 297 801 q 281 807 289 806 q 263 810 272 808 q 244 813 253 811 q 233 815 236 815 l 181 815 l 146 815 l 136 792 l 136 453 z "},"æ":{"ha":567,"x_min":14,"x_max":558,"o":"m 206 478 q 196 476 203 478 q 181 470 189 474 q 165 463 172 467 q 154 458 158 460 l 32 415 q 22 424 28 415 q 14 436 15 432 l 14 461 l 14 490 q 17 506 14 494 q 21 522 21 518 l 58 561 l 165 633 l 181 656 l 197 681 q 208 697 203 686 l 208 1124 l 226 1176 l 333 1176 l 347 1133 l 347 806 l 458 874 q 471 889 461 876 q 486 906 481 901 q 490 907 488 906 q 494 908 492 907 q 499 908 497 908 q 506 907 501 908 q 513 906 510 906 q 519 897 515 901 q 524 890 521 893 q 529 883 526 886 q 545 856 535 875 q 556 833 556 836 q 557 820 556 831 q 558 806 558 810 q 558 797 558 801 q 557 790 557 793 q 556 781 556 785 q 549 769 556 776 q 539 758 542 761 q 525 755 536 758 q 513 750 514 751 q 504 742 510 749 q 493 729 499 736 q 482 716 488 722 q 475 708 476 710 q 469 704 475 707 q 458 697 464 701 q 447 691 453 693 q 440 686 442 689 l 368 633 q 356 624 364 631 q 347 615 347 618 l 347 32 q 342 19 347 28 q 333 10 338 11 q 328 9 332 10 q 318 7 324 8 q 308 3 313 6 q 299 0 303 1 l 293 0 l 288 0 q 272 3 282 1 q 253 7 263 6 q 235 9 243 8 q 226 10 228 10 q 222 15 225 11 q 219 22 219 17 q 210 32 214 25 q 206 40 208 35 l 206 478 z "},"Æ":{"ha":567,"x_min":14,"x_max":558,"o":"m 206 478 q 196 476 203 478 q 181 470 189 474 q 165 463 172 467 q 154 458 158 460 l 32 415 q 22 424 28 415 q 14 436 15 432 l 14 461 l 14 490 q 17 506 14 494 q 21 522 21 518 l 58 561 l 165 633 l 181 656 l 197 681 q 208 697 203 686 l 208 1124 l 226 1176 l 333 1176 l 347 1133 l 347 806 l 458 874 q 471 889 461 876 q 486 906 481 901 q 490 907 488 906 q 494 908 492 907 q 499 908 497 908 q 506 907 501 908 q 513 906 510 906 q 519 897 515 901 q 524 890 521 893 q 529 883 526 886 q 545 856 535 875 q 556 833 556 836 q 557 820 556 831 q 558 806 558 810 q 558 797 558 801 q 557 790 557 793 q 556 781 556 785 q 549 769 556 776 q 539 758 542 761 q 525 755 536 758 q 513 750 514 751 q 504 742 510 749 q 493 729 499 736 q 482 716 488 722 q 475 708 476 710 q 469 704 475 707 q 458 697 464 701 q 447 691 453 693 q 440 686 442 689 l 368 633 q 356 624 364 631 q 347 615 347 618 l 347 32 q 342 19 347 28 q 333 10 338 11 q 328 9 332 10 q 318 7 324 8 q 308 3 313 6 q 299 0 303 1 l 293 0 l 288 0 q 272 3 282 1 q 253 7 263 6 q 235 9 243 8 q 226 10 228 10 q 222 15 225 11 q 219 22 219 17 q 210 32 214 25 q 206 40 208 35 l 206 478 z "},"ø":{"ha":585,"x_min":8,"x_max":579,"o":"m 229 260 q 226 276 229 264 q 221 293 224 289 q 216 299 219 297 q 210 301 213 301 q 194 299 208 301 q 175 293 181 297 q 165 287 172 290 q 154 281 157 283 q 148 272 153 278 q 138 259 143 267 q 126 246 132 251 q 119 239 121 240 l 86 239 l 44 239 l 38 242 q 33 245 36 243 q 28 249 29 247 q 16 260 24 253 q 8 269 8 267 l 8 286 l 8 301 q 15 310 10 303 q 25 326 19 317 q 36 343 31 335 q 44 357 42 351 l 111 408 q 164 453 147 442 q 182 464 181 464 q 188 469 185 464 q 193 474 192 474 q 203 489 197 478 q 214 510 208 500 q 224 527 219 519 q 229 536 229 535 l 229 553 l 229 569 q 225 587 229 575 q 221 601 221 599 l 215 601 l 210 601 q 197 598 208 601 q 182 592 186 594 q 178 588 181 590 q 172 585 175 586 l 165 582 q 158 574 164 581 q 147 559 153 567 q 135 545 140 551 q 126 536 129 539 q 115 532 125 536 q 100 528 104 528 l 86 528 l 72 528 q 66 530 71 528 q 55 533 61 532 q 44 535 49 533 q 36 536 39 536 q 27 544 35 540 q 17 550 19 547 q 13 556 14 550 q 8 560 10 557 l 8 582 l 8 601 q 13 610 10 603 q 19 626 15 618 q 27 642 24 635 q 31 650 31 649 l 119 711 l 147 743 l 210 808 q 219 822 213 810 q 229 840 226 835 l 229 1131 q 232 1142 231 1135 q 235 1153 233 1147 q 236 1161 236 1158 q 242 1174 239 1167 q 249 1186 246 1181 q 257 1203 253 1193 l 347 1203 q 352 1192 349 1200 q 358 1181 356 1183 q 366 1165 360 1178 q 375 1149 372 1153 l 375 951 l 449 989 q 467 1001 453 993 q 485 1010 482 1010 l 504 1010 l 524 1010 l 540 1000 q 554 994 544 997 q 567 989 564 992 l 575 940 q 572 896 579 911 q 551 870 564 881 q 522 853 538 860 q 496 840 507 847 l 457 817 q 449 809 456 815 q 435 796 442 803 q 421 783 428 789 q 414 775 414 776 q 404 769 411 772 q 394 764 397 765 q 392 762 392 764 q 389 758 392 760 l 386 753 q 383 741 385 750 q 381 720 382 732 q 377 697 379 708 q 375 678 375 685 l 375 667 l 375 657 q 380 650 376 653 q 386 647 383 647 q 389 644 386 644 q 394 643 392 643 q 399 644 397 643 q 403 647 400 644 q 417 661 407 650 q 440 685 428 672 q 462 707 451 697 q 476 719 472 717 q 485 727 479 724 q 496 731 492 731 l 511 731 l 536 731 q 545 716 538 726 q 556 701 553 706 l 564 643 q 562 638 564 643 q 558 624 560 632 q 554 610 556 617 q 551 601 553 603 q 536 586 547 599 q 524 569 525 574 l 421 486 q 413 478 419 483 q 400 469 407 474 q 388 460 393 464 q 381 453 382 456 l 381 35 q 376 24 381 32 q 367 14 371 17 q 356 6 364 10 q 347 3 349 3 q 339 1 346 1 q 323 0 332 0 q 306 0 314 0 q 292 0 297 0 q 283 0 289 0 q 272 0 278 0 q 261 1 265 0 q 257 3 257 1 l 229 35 l 229 260 z "},"Ø":{"ha":585,"x_min":8,"x_max":579,"o":"m 229 260 q 226 276 229 264 q 221 293 224 289 q 216 299 219 297 q 210 301 213 301 q 194 299 208 301 q 175 293 181 297 q 165 287 172 290 q 154 281 157 283 q 148 272 153 278 q 138 259 143 267 q 126 246 132 251 q 119 239 121 240 l 86 239 l 44 239 l 38 242 q 33 245 36 243 q 28 249 29 247 q 16 260 24 253 q 8 269 8 267 l 8 286 l 8 301 q 15 310 10 303 q 25 326 19 317 q 36 343 31 335 q 44 357 42 351 l 111 408 q 164 453 147 442 q 182 464 181 464 q 188 469 185 464 q 193 474 192 474 q 203 489 197 478 q 214 510 208 500 q 224 527 219 519 q 229 536 229 535 l 229 553 l 229 569 q 225 587 229 575 q 221 601 221 599 l 215 601 l 210 601 q 197 598 208 601 q 182 592 186 594 q 178 588 181 590 q 172 585 175 586 l 165 582 q 158 574 164 581 q 147 559 153 567 q 135 545 140 551 q 126 536 129 539 q 115 532 125 536 q 100 528 104 528 l 86 528 l 72 528 q 66 530 71 528 q 55 533 61 532 q 44 535 49 533 q 36 536 39 536 q 27 544 35 540 q 17 550 19 547 q 13 556 14 550 q 8 560 10 557 l 8 582 l 8 601 q 13 610 10 603 q 19 626 15 618 q 27 642 24 635 q 31 650 31 649 l 119 711 l 147 743 l 210 808 q 219 822 213 810 q 229 840 226 835 l 229 1131 q 232 1142 231 1135 q 235 1153 233 1147 q 236 1161 236 1158 q 242 1174 239 1167 q 249 1186 246 1181 q 257 1203 253 1193 l 347 1203 q 352 1192 349 1200 q 358 1181 356 1183 q 366 1165 360 1178 q 375 1149 372 1153 l 375 951 l 449 989 q 467 1001 453 993 q 485 1010 482 1010 l 504 1010 l 524 1010 l 540 1000 q 554 994 544 997 q 567 989 564 992 l 575 940 q 572 896 579 911 q 551 870 564 881 q 522 853 538 860 q 496 840 507 847 l 457 817 q 449 809 456 815 q 435 796 442 803 q 421 783 428 789 q 414 775 414 776 q 404 769 411 772 q 394 764 397 765 q 392 762 392 764 q 389 758 392 760 l 386 753 q 383 741 385 750 q 381 720 382 732 q 377 697 379 708 q 375 678 375 685 l 375 667 l 375 657 q 380 650 376 653 q 386 647 383 647 q 389 644 386 644 q 394 643 392 643 q 399 644 397 643 q 403 647 400 644 q 417 661 407 650 q 440 685 428 672 q 462 707 451 697 q 476 719 472 717 q 485 727 479 724 q 496 731 492 731 l 511 731 l 536 731 q 545 716 538 726 q 556 701 553 706 l 564 643 q 562 638 564 643 q 558 624 560 632 q 554 610 556 617 q 551 601 553 603 q 536 586 547 599 q 524 569 525 574 l 421 486 q 413 478 419 483 q 400 469 407 474 q 388 460 393 464 q 381 453 382 456 l 381 35 q 376 24 381 32 q 367 14 371 17 q 356 6 364 10 q 347 3 349 3 q 339 1 346 1 q 323 0 332 0 q 306 0 314 0 q 292 0 297 0 q 283 0 289 0 q 272 0 278 0 q 261 1 265 0 q 257 3 257 1 l 229 35 l 229 260 z "},"ð":{"ha":503,"x_min":15,"x_max":496,"o":"m 76 1200 q 85 1199 79 1200 q 94 1197 92 1197 q 114 1181 101 1193 q 126 1164 126 1168 l 126 960 l 142 950 q 158 949 146 950 q 181 945 169 947 q 204 942 193 943 q 219 940 215 940 q 240 937 228 939 q 263 932 251 935 q 288 926 275 928 q 311 917 296 924 q 344 901 326 910 q 376 885 361 893 q 396 874 390 876 q 403 865 397 872 q 417 848 410 857 q 433 829 425 839 q 446 815 442 819 q 458 794 447 811 q 475 772 469 776 q 479 760 475 768 q 483 749 483 751 q 489 730 486 743 q 492 714 492 717 q 492 702 492 711 q 494 681 493 693 q 495 656 494 668 q 496 636 496 643 q 495 615 496 628 q 494 590 494 603 q 492 567 493 576 q 492 556 492 557 q 489 539 492 551 q 483 522 486 526 q 478 514 482 519 q 470 501 475 508 q 461 487 465 493 q 454 478 457 481 q 443 465 451 475 q 425 444 435 456 q 407 424 415 433 q 396 410 399 414 q 388 402 393 407 q 376 392 382 397 q 364 382 369 386 q 358 376 358 378 q 340 366 353 374 q 312 349 328 358 q 281 331 296 340 q 258 318 267 322 q 246 313 257 318 q 229 308 235 308 q 218 307 226 308 q 200 303 210 306 q 182 300 190 301 q 171 299 174 299 q 163 292 171 294 q 153 285 156 289 q 147 281 151 285 q 142 275 143 278 q 133 257 139 269 q 126 242 126 244 l 126 15 q 121 11 125 14 q 117 8 119 10 q 113 6 114 7 q 99 -2 110 1 q 83 -6 88 -6 l 75 -6 l 65 -6 q 53 -2 64 -6 q 36 6 42 1 q 30 8 33 7 q 24 11 26 10 q 15 15 19 14 l 15 1164 q 23 1175 15 1167 q 36 1186 31 1183 q 44 1194 38 1190 q 53 1197 51 1197 q 64 1199 56 1197 q 76 1200 72 1200 m 132 453 q 135 443 132 450 q 142 433 139 436 q 151 425 143 431 q 163 419 160 419 q 182 425 164 419 q 211 433 200 431 q 233 438 218 433 q 250 443 247 443 q 269 454 254 447 q 288 468 283 461 q 296 474 290 469 q 308 483 301 478 q 320 494 314 489 q 329 501 326 499 q 340 514 332 506 q 355 531 347 522 q 369 547 363 540 q 375 556 375 553 q 382 571 378 558 q 388 589 386 583 l 388 631 l 388 669 q 382 694 386 678 q 375 714 378 710 q 366 726 375 715 q 347 750 357 736 q 325 775 336 764 q 308 792 314 786 q 299 798 306 794 q 288 806 292 801 q 276 807 285 806 q 258 810 268 808 q 240 813 249 811 q 229 815 232 815 l 176 815 l 142 815 l 132 792 l 132 453 m 181 633 q 181 647 181 642 q 182 657 181 651 q 189 668 182 660 q 200 681 196 676 q 218 692 207 685 q 229 703 229 700 l 250 703 l 269 703 q 281 693 275 699 q 292 687 286 690 q 300 681 297 683 l 308 669 q 313 658 310 665 q 317 647 317 650 q 318 640 317 643 q 319 631 319 633 q 318 619 319 626 q 317 614 317 617 q 313 601 317 610 q 308 589 310 592 q 298 578 306 585 q 288 568 290 572 q 279 560 286 565 q 269 556 272 556 l 250 556 l 229 556 q 210 567 225 558 q 192 578 196 575 q 185 590 189 582 q 182 603 182 597 q 181 615 181 608 q 181 633 181 622 z "},"©":{"ha":2114,"x_min":0,"x_max":2099,"o":"m 0 49 q 1 62 0 51 q 4 76 3 72 q 8 90 6 81 q 13 106 10 100 q 15 115 13 107 q 20 129 18 122 q 25 143 22 136 q 28 151 28 150 q 33 167 29 157 q 40 190 36 178 q 48 214 44 203 q 53 231 51 225 q 56 243 53 233 q 62 263 58 253 q 68 283 65 274 q 72 297 71 293 q 76 310 74 301 q 81 327 78 318 q 85 344 83 336 q 88 353 88 351 q 92 372 89 358 q 96 390 94 386 q 95 393 96 392 q 94 397 94 394 l 94 400 l 15 400 q 11 408 14 400 q 8 418 8 415 l 8 439 l 8 457 q 9 470 8 460 q 13 489 10 481 q 15 497 14 492 q 15 507 15 503 q 22 522 18 511 q 28 535 26 532 q 40 538 29 535 q 57 544 51 542 q 69 547 58 544 q 90 553 79 550 q 111 559 101 557 q 124 564 121 561 q 133 567 125 564 q 142 574 142 569 q 146 577 144 574 q 147 583 147 581 q 151 604 147 589 q 160 638 156 619 q 167 672 164 656 q 169 694 169 689 q 176 723 171 701 q 185 769 181 744 q 193 817 189 793 q 199 850 197 840 q 204 881 200 860 q 212 924 208 901 q 218 966 215 947 q 222 992 221 985 q 224 1007 224 997 q 226 1028 225 1017 q 229 1047 228 1039 q 231 1058 231 1056 l 231 1106 l 231 1156 q 227 1165 229 1158 q 222 1174 225 1172 q 214 1180 219 1176 q 207 1183 208 1183 q 201 1180 206 1183 q 196 1174 197 1176 q 190 1168 192 1169 l 188 1165 q 181 1150 186 1160 q 172 1129 176 1140 q 164 1108 168 1118 q 158 1094 160 1099 q 156 1087 158 1093 q 151 1071 153 1081 q 146 1052 149 1061 q 142 1039 143 1043 q 138 1016 142 1033 q 129 978 133 999 q 121 940 125 957 q 115 917 117 922 q 114 910 115 914 q 111 907 113 907 l 97 907 l 83 907 q 80 910 82 907 q 75 917 78 914 q 74 919 75 917 q 72 925 72 922 q 71 931 71 926 l 71 939 l 71 947 q 72 953 71 950 q 74 970 72 957 q 75 992 75 983 q 77 1007 75 997 q 81 1019 79 1017 q 83 1036 81 1025 q 88 1060 85 1047 q 92 1082 90 1072 q 96 1094 94 1092 q 99 1110 96 1099 q 103 1126 101 1122 q 110 1148 106 1135 q 115 1165 114 1161 q 121 1181 117 1169 q 131 1203 125 1192 q 140 1226 136 1215 q 147 1240 144 1236 q 152 1249 147 1243 q 158 1258 157 1256 q 172 1274 163 1264 q 183 1286 181 1283 q 191 1294 185 1290 q 199 1297 197 1297 l 211 1297 l 222 1297 q 233 1294 225 1297 q 242 1286 240 1290 q 256 1270 244 1283 q 274 1250 268 1257 q 280 1240 275 1247 q 286 1231 285 1233 q 292 1216 288 1226 q 297 1201 296 1206 q 303 1188 300 1199 q 306 1174 306 1176 q 308 1159 307 1169 q 310 1144 310 1149 l 310 1115 l 310 1086 q 308 1067 310 1082 q 305 1033 307 1051 q 301 999 303 1015 q 297 974 299 982 q 294 938 297 964 q 286 884 290 911 q 278 833 282 857 q 274 803 275 810 q 268 767 272 793 q 258 711 264 740 q 249 656 253 682 q 242 619 244 631 l 242 614 q 252 613 244 614 q 263 611 260 611 q 272 614 264 611 q 281 619 279 617 q 285 623 283 619 q 286 631 286 626 q 289 644 286 633 q 293 658 292 656 q 308 715 297 672 q 332 813 318 757 q 361 935 346 869 q 390 1057 376 1000 q 415 1156 404 1114 q 428 1211 425 1199 q 433 1226 431 1217 q 436 1240 436 1236 q 442 1255 438 1244 q 451 1275 447 1265 q 460 1294 456 1285 q 464 1307 464 1303 q 468 1310 465 1308 q 472 1315 471 1315 q 479 1322 475 1318 q 485 1325 483 1325 q 497 1331 488 1328 q 508 1335 506 1335 l 515 1335 l 524 1335 q 534 1331 526 1335 q 543 1325 542 1328 q 546 1322 544 1325 q 547 1315 547 1318 l 547 1311 l 547 1307 q 546 1297 547 1303 q 543 1286 544 1290 q 536 1259 542 1282 q 522 1210 531 1236 q 508 1163 514 1185 q 500 1136 501 1142 q 489 1092 497 1124 q 471 1025 481 1060 q 453 959 461 990 q 442 917 444 928 q 437 902 440 914 q 429 875 433 890 q 422 845 425 860 q 417 822 418 831 q 413 806 415 817 q 408 783 410 794 q 403 763 406 772 q 401 751 401 753 q 395 731 399 747 q 389 696 392 714 q 382 661 386 678 q 376 640 378 644 l 417 640 q 424 629 419 640 q 428 611 428 618 q 431 597 431 611 q 431 576 431 583 q 431 561 431 574 q 428 544 431 549 q 425 533 428 540 q 419 526 422 526 q 415 520 419 524 q 408 517 411 517 q 403 513 408 515 q 394 510 399 511 q 386 508 390 508 q 381 507 382 507 q 367 501 376 503 q 358 499 358 499 q 349 492 354 494 q 342 489 343 489 q 338 475 338 482 q 332 453 336 472 q 325 428 328 433 q 323 416 325 426 q 318 392 321 406 q 313 364 315 378 q 310 343 311 350 q 306 320 308 339 q 301 297 303 301 q 299 278 301 289 q 297 268 297 272 l 297 231 l 297 192 q 303 174 299 185 q 310 161 308 164 l 322 161 l 338 161 q 343 165 339 161 q 350 174 347 169 q 362 192 353 178 q 374 211 371 207 q 383 233 376 217 q 397 267 390 249 q 411 301 404 285 q 419 325 418 317 q 422 344 419 331 q 424 374 424 358 q 426 401 425 389 q 428 418 428 414 q 431 438 431 424 q 432 457 432 453 q 437 487 433 465 q 442 517 440 508 q 444 540 442 522 q 449 564 447 558 q 451 575 449 567 q 454 592 453 583 q 458 609 456 601 q 461 619 460 617 q 465 633 461 624 q 469 649 468 643 q 475 670 471 657 q 481 686 479 683 q 486 701 482 692 q 492 715 490 711 q 501 730 494 719 q 508 743 507 740 q 519 758 510 749 q 531 772 529 768 q 538 778 533 775 q 543 781 542 781 q 554 787 547 783 q 564 790 561 790 l 567 790 l 572 790 q 584 787 575 790 q 596 781 593 783 q 603 778 597 781 q 611 772 610 775 q 614 768 613 769 q 617 765 617 767 q 619 761 618 764 l 621 761 l 624 761 q 633 781 625 767 q 643 803 642 794 q 654 804 647 803 q 669 806 661 806 q 684 808 676 807 q 694 811 692 810 l 697 811 l 697 811 q 703 801 700 808 q 707 790 707 793 l 704 781 q 703 761 703 774 q 697 728 701 753 q 686 669 692 703 q 674 597 681 635 q 660 524 667 558 q 649 463 654 489 q 643 428 644 436 q 639 405 642 424 q 636 382 636 386 q 631 350 633 372 q 628 325 628 328 l 628 300 l 628 276 q 629 272 628 274 q 631 268 631 268 q 635 262 632 265 q 639 258 638 258 q 642 257 640 257 q 647 256 644 256 q 653 257 651 256 q 654 258 653 257 q 663 267 657 258 q 669 276 669 275 q 678 299 672 281 q 686 325 685 317 q 690 343 688 328 q 694 361 692 358 q 701 400 696 372 q 713 465 706 428 q 726 544 719 501 q 740 623 733 586 q 751 688 747 660 q 758 724 756 715 q 765 756 760 733 q 769 781 769 778 q 774 792 771 785 q 778 803 776 800 q 790 806 781 803 q 806 811 800 808 l 819 811 l 829 811 q 835 796 831 808 q 842 781 840 783 l 844 781 l 850 781 q 860 792 851 783 q 869 803 868 800 q 878 807 872 803 q 886 811 885 811 l 907 811 l 925 811 q 933 801 926 808 q 940 790 939 794 q 944 776 942 786 q 947 761 947 767 l 947 756 q 948 750 947 751 q 949 747 949 749 q 948 734 949 742 q 947 724 947 726 q 947 711 947 718 q 944 694 944 699 q 939 664 943 689 q 932 631 935 639 q 926 600 931 624 q 917 549 922 576 q 907 498 911 522 q 901 467 903 474 q 897 445 900 464 q 893 418 894 426 q 890 406 892 414 q 888 388 889 397 q 886 371 886 378 q 886 361 886 364 l 886 333 l 886 306 q 889 294 886 303 q 893 286 892 286 l 901 286 l 908 286 q 913 290 910 286 q 917 297 915 293 q 925 311 919 300 q 932 325 931 322 q 938 338 933 328 q 944 353 943 349 q 951 371 947 360 q 960 392 956 382 q 967 410 964 403 q 969 418 969 418 q 969 431 969 419 q 970 456 969 443 q 972 482 971 469 q 974 499 972 494 q 974 523 974 506 q 976 544 975 540 q 978 563 976 550 q 982 589 981 575 q 985 615 983 603 q 989 631 988 626 q 991 642 989 632 q 995 664 993 651 q 1000 688 997 676 q 1004 706 1003 700 q 1008 719 1004 708 q 1013 733 1011 731 q 1019 759 1014 742 q 1028 781 1025 776 q 1032 792 1029 785 q 1036 803 1035 800 q 1044 817 1038 807 q 1051 832 1050 828 q 1063 845 1053 835 q 1075 860 1072 856 q 1081 863 1076 860 q 1086 868 1086 865 q 1097 875 1090 872 q 1103 878 1103 878 l 1117 878 l 1131 878 l 1138 875 q 1142 872 1140 874 q 1147 868 1144 869 q 1153 863 1149 865 q 1158 860 1158 860 q 1160 857 1160 858 q 1164 853 1161 856 q 1167 850 1164 851 q 1178 821 1169 842 q 1190 790 1188 800 q 1193 783 1192 790 q 1194 772 1194 776 q 1197 757 1196 767 q 1197 743 1197 747 q 1199 717 1197 728 q 1199 696 1199 707 q 1200 681 1200 685 q 1199 662 1200 674 q 1199 639 1199 650 q 1198 619 1199 628 q 1197 611 1197 611 q 1197 599 1197 608 q 1197 579 1197 590 q 1195 559 1196 568 q 1194 544 1194 550 q 1193 530 1194 542 q 1191 505 1192 518 q 1188 481 1190 492 q 1186 467 1186 469 q 1187 456 1186 464 q 1188 443 1188 447 q 1193 441 1189 443 q 1197 439 1197 439 q 1206 447 1200 442 q 1214 457 1211 453 q 1222 470 1215 460 q 1231 489 1228 481 l 1235 499 l 1236 506 q 1238 511 1238 508 q 1239 517 1238 514 q 1240 530 1239 519 q 1242 544 1242 540 q 1243 558 1242 547 q 1246 582 1244 569 q 1249 606 1247 594 q 1250 619 1250 617 q 1255 650 1253 628 q 1258 676 1257 672 q 1264 706 1260 685 q 1269 733 1268 728 q 1273 748 1271 739 q 1278 766 1275 757 q 1283 782 1281 775 q 1286 790 1285 789 q 1292 807 1286 794 q 1303 833 1297 819 q 1314 860 1308 847 q 1321 878 1319 874 q 1326 885 1322 878 q 1333 897 1331 893 q 1342 907 1336 900 q 1349 917 1347 914 q 1358 922 1351 919 q 1365 925 1364 925 l 1386 925 l 1408 925 q 1417 921 1410 925 q 1425 917 1424 917 l 1428 917 l 1429 917 q 1431 924 1429 919 q 1431 929 1431 926 q 1432 935 1431 932 l 1440 982 q 1447 1028 1442 997 q 1459 1101 1453 1060 q 1472 1187 1465 1142 q 1485 1273 1479 1232 q 1497 1345 1492 1314 q 1504 1392 1503 1376 q 1510 1421 1506 1399 q 1517 1450 1514 1443 l 1519 1460 q 1528 1463 1521 1460 q 1540 1469 1536 1467 q 1558 1473 1544 1469 q 1575 1478 1571 1476 q 1579 1473 1576 1476 q 1583 1469 1582 1469 l 1586 1460 q 1583 1430 1586 1451 q 1579 1400 1581 1408 q 1567 1322 1575 1382 q 1545 1181 1558 1261 q 1517 1010 1532 1100 q 1490 839 1503 919 q 1468 699 1478 758 q 1457 619 1458 639 q 1453 597 1456 614 q 1449 563 1451 581 q 1444 529 1446 544 q 1440 507 1442 514 q 1438 483 1440 500 q 1436 457 1436 465 l 1436 443 l 1436 428 q 1438 419 1436 424 q 1440 410 1440 410 l 1442 407 q 1444 400 1444 403 q 1449 393 1444 397 q 1453 390 1451 392 l 1458 390 l 1464 390 q 1467 394 1465 390 q 1472 400 1469 397 q 1481 414 1475 403 q 1489 428 1486 425 q 1490 435 1489 432 q 1493 439 1492 439 q 1499 454 1494 443 q 1506 476 1503 465 q 1513 494 1510 486 q 1517 507 1517 503 q 1521 521 1518 510 q 1525 535 1524 532 q 1525 553 1525 544 q 1526 569 1526 561 q 1528 583 1526 578 q 1528 593 1528 585 q 1530 610 1529 601 q 1531 628 1531 619 q 1532 640 1532 636 q 1535 672 1532 647 q 1540 706 1539 697 q 1544 729 1542 710 q 1547 751 1547 749 q 1551 767 1549 757 q 1556 790 1553 778 q 1560 815 1558 803 q 1564 832 1563 826 q 1567 845 1564 835 q 1571 860 1569 856 q 1578 878 1574 864 q 1583 897 1582 893 q 1590 911 1586 900 q 1594 925 1593 922 q 1601 935 1597 928 q 1607 944 1606 942 q 1615 953 1608 947 q 1624 964 1621 960 q 1630 970 1625 967 q 1636 974 1635 974 l 1651 974 l 1667 974 q 1674 970 1668 974 q 1682 964 1681 967 q 1687 960 1685 964 q 1690 953 1689 957 q 1695 942 1692 950 q 1703 926 1699 935 q 1710 908 1707 917 q 1714 897 1714 900 q 1717 890 1715 897 q 1718 878 1718 882 q 1719 861 1718 875 q 1722 850 1721 856 q 1723 835 1722 847 q 1724 815 1724 824 q 1723 797 1724 810 q 1722 781 1722 783 q 1721 759 1722 776 q 1718 733 1719 742 q 1715 712 1718 731 q 1710 686 1713 693 q 1706 667 1708 682 q 1703 649 1703 653 q 1699 633 1701 643 q 1694 619 1696 624 q 1688 603 1692 615 q 1678 579 1683 592 q 1669 557 1674 567 q 1664 544 1664 547 q 1655 533 1661 540 q 1647 526 1649 526 l 1599 526 q 1596 523 1597 526 q 1594 517 1594 519 l 1594 489 l 1594 457 l 1597 450 q 1597 444 1597 447 q 1599 439 1597 440 q 1601 435 1600 439 q 1603 428 1603 432 q 1610 419 1606 425 q 1614 410 1614 414 q 1621 403 1617 407 q 1628 400 1625 400 l 1644 400 l 1658 400 q 1669 413 1660 403 q 1682 428 1678 424 q 1689 440 1685 433 q 1694 447 1693 447 q 1703 468 1697 453 q 1716 500 1708 483 q 1730 532 1724 517 q 1738 556 1736 547 q 1747 576 1740 558 q 1754 601 1753 593 q 1756 611 1754 606 q 1758 619 1758 617 q 1760 649 1758 625 q 1763 676 1761 672 q 1764 696 1763 682 q 1767 715 1765 710 q 1768 728 1767 719 q 1771 746 1769 736 q 1774 763 1772 756 q 1775 772 1775 769 q 1780 801 1775 778 q 1786 832 1785 824 q 1794 862 1789 840 q 1803 889 1800 883 q 1810 909 1804 894 q 1822 938 1815 924 q 1833 965 1828 953 q 1842 982 1839 978 q 1851 995 1842 985 q 1864 1010 1861 1006 q 1867 1013 1865 1011 q 1872 1017 1869 1015 l 1876 1019 q 1888 1022 1878 1019 q 1903 1024 1897 1024 q 1918 1022 1908 1024 q 1929 1019 1928 1019 q 1935 1015 1931 1019 q 1942 1010 1939 1010 l 1943 1010 l 1944 1010 l 1953 1049 q 1960 1099 1954 1065 q 1972 1178 1965 1133 q 1986 1269 1979 1222 q 2000 1360 1993 1317 q 2013 1438 2007 1403 q 2019 1489 2018 1472 q 2024 1516 2022 1499 q 2029 1535 2026 1533 q 2032 1545 2029 1539 q 2036 1556 2035 1551 q 2042 1561 2038 1558 q 2047 1564 2046 1564 q 2065 1570 2051 1567 q 2083 1574 2078 1574 l 2090 1574 l 2096 1574 q 2098 1570 2097 1574 q 2099 1564 2099 1567 l 2099 1544 l 2099 1526 q 2098 1517 2099 1525 q 2096 1501 2097 1510 q 2093 1483 2094 1492 q 2092 1469 2092 1475 q 2079 1393 2089 1451 q 2058 1258 2069 1335 q 2032 1093 2046 1181 q 2006 928 2018 1006 q 1984 792 1993 850 q 1972 715 1975 733 q 1969 692 1971 708 q 1965 658 1967 676 q 1960 624 1963 640 q 1957 601 1958 607 q 1954 578 1956 597 q 1953 556 1953 558 l 1953 542 l 1953 535 q 1954 526 1953 532 q 1957 517 1956 519 q 1961 506 1957 511 q 1964 499 1964 501 q 1969 494 1964 494 q 1975 494 1974 494 q 1982 494 1978 494 q 1988 499 1986 494 q 1997 517 1992 503 q 2010 548 2003 532 q 2024 579 2018 564 q 2032 601 2031 594 q 2040 623 2035 607 q 2050 657 2044 639 q 2060 691 2056 675 q 2068 715 2065 707 l 2068 674 l 2068 631 q 2067 622 2068 626 q 2064 611 2064 611 q 2060 597 2063 608 q 2056 583 2057 585 q 2049 562 2053 575 q 2044 544 2046 549 q 2040 531 2043 542 q 2031 507 2036 519 q 2023 483 2026 494 q 2017 467 2019 472 q 2012 457 2015 464 q 2008 447 2008 450 q 1999 428 2006 443 q 1988 410 1992 414 q 1982 400 1986 407 q 1975 390 1978 393 q 1967 382 1974 389 q 1960 372 1961 375 q 1953 367 1958 372 q 1944 361 1947 361 l 1938 361 l 1933 361 q 1926 367 1931 361 q 1921 372 1922 372 q 1917 382 1919 375 q 1914 390 1914 389 q 1907 414 1911 394 q 1901 439 1903 433 q 1897 428 1900 435 q 1889 415 1893 422 q 1881 399 1885 407 q 1876 390 1878 392 q 1869 376 1875 386 q 1861 361 1864 365 q 1858 358 1858 360 q 1853 353 1856 357 q 1847 347 1851 350 q 1842 343 1842 343 l 1828 343 l 1814 343 q 1808 347 1813 343 q 1803 353 1804 350 q 1797 358 1797 357 l 1794 361 q 1788 374 1792 365 q 1781 392 1785 383 q 1774 409 1776 401 q 1769 418 1771 417 q 1767 435 1769 422 q 1763 457 1764 449 q 1760 472 1761 460 q 1758 489 1758 485 q 1756 496 1758 489 q 1754 507 1754 503 q 1753 504 1753 506 q 1753 501 1753 503 q 1751 499 1751 500 q 1747 486 1750 494 q 1740 468 1743 478 q 1733 449 1736 458 q 1731 439 1731 440 q 1722 419 1728 432 q 1710 390 1717 406 q 1697 362 1703 375 q 1690 343 1692 349 q 1685 334 1689 340 q 1679 325 1681 328 q 1675 322 1678 325 q 1671 315 1672 318 q 1666 309 1669 311 q 1658 303 1663 307 q 1651 297 1654 300 q 1640 295 1650 297 q 1625 293 1631 293 q 1610 295 1619 293 q 1599 297 1600 297 q 1588 303 1597 297 q 1575 315 1579 310 q 1570 325 1575 318 q 1564 333 1565 332 q 1556 353 1561 339 q 1547 372 1550 367 q 1544 385 1547 375 q 1540 400 1542 394 q 1536 420 1539 406 q 1532 439 1533 435 l 1528 439 q 1520 420 1525 433 q 1509 391 1515 407 q 1497 362 1503 375 q 1489 343 1492 349 q 1478 324 1486 339 q 1468 306 1469 308 q 1458 292 1467 303 q 1444 276 1449 282 q 1438 272 1442 275 q 1432 268 1433 268 l 1424 268 l 1414 268 q 1409 272 1411 268 q 1406 276 1407 275 q 1399 292 1403 281 q 1393 306 1394 303 q 1389 324 1392 310 q 1386 343 1386 339 q 1372 315 1382 335 q 1358 286 1361 294 q 1351 278 1356 283 q 1344 268 1347 272 q 1336 256 1342 264 q 1329 249 1331 249 q 1322 247 1325 247 l 1314 247 q 1302 248 1308 247 q 1293 249 1296 249 q 1288 252 1292 249 q 1282 258 1283 256 q 1276 267 1281 258 q 1269 276 1271 275 q 1264 291 1268 281 q 1258 306 1260 301 q 1255 319 1257 308 q 1250 333 1253 331 q 1248 343 1249 336 q 1247 353 1247 350 q 1243 383 1246 360 q 1239 410 1240 406 q 1226 396 1236 407 q 1214 382 1217 385 q 1208 375 1213 378 q 1203 372 1203 372 l 1175 372 l 1172 368 q 1171 361 1171 367 q 1167 351 1169 360 q 1161 330 1164 342 q 1156 308 1158 318 q 1151 297 1153 299 q 1147 285 1150 293 q 1140 267 1143 276 q 1133 251 1136 258 q 1128 240 1129 243 q 1122 230 1126 236 q 1115 219 1117 224 q 1108 212 1114 218 q 1100 201 1101 206 q 1092 195 1097 199 q 1086 192 1088 192 q 1078 190 1082 190 l 1065 190 q 1053 191 1063 190 q 1043 192 1044 192 q 1038 195 1042 192 q 1032 201 1035 199 q 1018 217 1026 207 q 1008 231 1010 226 q 997 256 1006 235 q 985 286 988 278 q 978 311 982 292 q 974 333 974 331 q 963 309 969 326 q 947 272 956 292 q 932 234 939 251 q 921 211 925 217 q 911 195 919 208 q 897 174 903 182 q 893 167 896 169 q 889 161 890 164 q 886 160 888 161 q 882 157 885 158 q 878 151 881 153 l 858 151 l 842 151 q 834 162 840 156 q 825 174 828 168 q 817 192 822 176 q 808 211 811 207 q 808 225 808 215 q 806 240 807 235 l 806 268 l 806 297 q 807 313 806 300 q 808 333 808 326 q 812 354 810 340 q 816 381 814 368 q 819 406 818 394 q 821 418 821 417 q 828 456 824 428 q 839 515 833 483 q 850 574 844 547 q 858 611 856 601 l 858 619 l 858 631 q 857 633 857 632 q 856 636 857 635 l 853 640 l 851 640 l 850 640 q 843 633 847 636 q 838 631 840 632 q 833 622 836 631 q 829 611 831 614 q 824 593 829 608 q 817 574 819 578 q 813 556 815 568 q 808 544 811 544 q 798 490 806 526 q 782 414 790 453 q 767 341 774 375 q 758 297 760 307 q 754 274 757 292 q 748 238 751 257 q 742 202 744 218 q 739 183 739 186 q 735 161 738 175 q 731 142 732 147 q 728 136 731 142 q 726 133 726 135 l 669 133 q 669 136 669 135 q 668 140 668 136 q 667 142 668 142 l 667 174 q 653 147 664 165 q 639 124 642 128 q 631 114 638 119 q 624 106 625 108 q 617 98 621 101 q 611 94 614 94 l 603 94 l 596 94 q 590 98 594 94 q 585 106 586 101 q 579 110 581 108 l 576 114 q 572 124 575 117 q 567 133 568 131 q 563 149 567 136 q 558 161 560 161 q 558 167 558 164 q 556 174 557 169 q 548 147 554 165 q 540 124 542 128 q 532 110 538 119 q 524 94 526 100 q 519 92 521 93 q 517 88 518 90 q 515 85 517 86 q 510 79 514 82 q 504 76 506 76 l 497 76 l 489 76 q 481 83 486 81 q 472 85 475 85 q 467 95 471 89 q 461 106 463 101 q 451 128 458 108 q 442 151 443 147 q 438 167 440 156 q 432 183 435 178 q 428 201 432 186 q 425 219 425 217 l 419 219 q 413 202 418 215 q 402 175 408 189 q 390 150 396 161 q 381 133 383 139 q 374 119 381 131 q 365 106 368 108 q 356 91 364 101 q 346 76 349 81 q 342 72 344 76 q 338 67 339 67 q 333 61 336 64 q 325 56 329 58 q 318 49 321 51 l 297 49 l 274 49 l 269 51 q 265 54 267 53 q 263 57 264 56 q 260 60 261 58 q 258 64 260 61 q 254 67 256 65 q 246 87 251 72 q 238 106 240 101 q 236 115 238 107 q 233 131 235 122 q 228 149 231 140 q 226 161 226 158 q 224 179 225 165 q 222 201 222 193 l 222 219 l 222 240 q 224 263 222 244 q 226 286 225 282 q 228 307 226 292 q 233 340 231 322 q 239 375 236 358 q 242 400 242 392 q 247 424 243 406 q 250 447 250 443 q 249 457 250 450 q 249 467 249 464 l 247 467 q 226 458 242 467 q 207 447 211 450 q 202 440 206 447 q 199 428 199 433 q 192 403 197 424 q 181 358 186 382 q 169 313 175 333 q 163 286 164 292 q 158 270 161 282 q 152 246 156 258 q 146 224 149 233 q 142 211 143 214 q 135 181 140 201 q 123 137 129 160 q 111 94 117 114 q 103 67 106 74 q 98 49 103 64 q 92 28 93 33 q 90 26 90 26 q 89 24 90 25 q 88 19 88 22 q 83 13 86 17 q 81 10 81 10 l 58 10 l 36 10 q 27 13 35 10 q 15 19 19 17 q 11 22 14 19 q 8 28 8 25 q 3 40 4 32 q 0 49 1 44 m 489 268 q 490 253 489 264 q 492 240 492 243 q 496 227 493 235 q 500 219 499 219 q 503 218 501 218 l 508 218 l 514 218 q 515 219 514 218 q 522 227 518 219 q 528 240 525 235 q 533 249 529 243 q 536 258 536 256 q 544 287 538 267 q 551 315 550 307 q 558 342 553 319 q 564 372 563 364 q 570 408 565 382 q 576 439 575 433 q 581 472 578 450 q 587 518 583 494 q 593 560 590 542 q 596 583 596 578 l 596 608 l 596 640 q 594 643 596 642 q 592 649 592 647 q 586 656 590 650 l 585 658 l 572 658 l 558 658 l 557 656 q 554 651 556 653 q 551 649 553 650 q 546 639 550 644 q 540 631 542 633 l 538 626 q 536 619 536 624 q 529 599 533 614 q 524 583 525 585 q 521 567 522 578 q 517 545 519 557 q 511 522 514 533 q 508 507 508 511 q 504 479 507 501 q 500 447 501 457 q 499 431 500 442 q 496 408 497 419 q 493 386 494 397 q 492 372 492 375 q 490 339 492 364 q 489 306 489 314 l 489 286 l 489 268 m 1036 390 q 1038 370 1036 383 q 1040 353 1039 357 q 1047 331 1042 344 q 1056 315 1053 318 q 1060 313 1057 315 q 1064 311 1063 311 q 1071 314 1069 311 q 1075 315 1074 314 q 1084 324 1078 315 q 1092 333 1090 332 q 1099 353 1093 339 q 1108 372 1106 367 q 1113 394 1108 376 q 1119 418 1118 411 q 1122 435 1119 422 q 1124 447 1124 442 q 1119 472 1122 451 q 1115 499 1115 493 q 1113 513 1114 501 q 1113 526 1113 524 q 1111 549 1111 539 q 1110 567 1110 557 q 1110 583 1110 576 q 1111 611 1110 590 q 1113 640 1113 632 q 1113 649 1113 642 q 1115 658 1114 656 q 1121 674 1117 664 q 1128 686 1125 683 q 1133 696 1129 690 q 1139 706 1138 701 l 1139 715 l 1139 724 q 1133 742 1136 732 q 1128 751 1129 751 q 1121 756 1126 756 q 1114 756 1115 756 q 1105 756 1110 756 q 1100 751 1100 756 q 1092 742 1099 751 q 1083 724 1086 732 l 1081 719 q 1079 715 1079 717 q 1073 695 1076 710 q 1067 676 1069 681 q 1064 663 1065 674 q 1060 640 1063 651 q 1055 617 1057 628 q 1051 601 1053 607 q 1048 575 1051 597 q 1043 544 1044 553 q 1042 525 1043 540 q 1040 507 1040 510 q 1038 475 1039 499 q 1036 447 1036 451 l 1036 418 l 1036 390 m 1301 390 q 1306 382 1303 389 q 1310 372 1308 375 q 1313 367 1311 372 q 1318 361 1315 361 l 1319 361 l 1321 361 q 1328 368 1325 367 q 1333 372 1331 369 q 1342 390 1336 375 q 1349 410 1347 406 q 1353 424 1350 414 q 1358 439 1357 435 q 1361 457 1358 442 q 1365 475 1364 472 q 1368 499 1365 481 q 1374 526 1371 518 q 1379 563 1375 536 q 1388 619 1383 590 q 1395 672 1392 647 q 1401 706 1399 697 q 1406 737 1403 715 q 1408 761 1408 758 l 1408 775 l 1408 781 q 1403 797 1408 785 q 1397 811 1399 808 l 1392 811 l 1386 811 q 1380 807 1385 811 q 1374 803 1375 803 q 1368 797 1371 800 q 1365 790 1365 793 q 1357 776 1364 786 q 1349 761 1350 765 q 1343 743 1347 758 q 1336 724 1339 728 q 1333 706 1336 718 q 1328 678 1331 693 q 1322 649 1325 664 q 1318 631 1319 635 q 1315 603 1318 625 q 1310 574 1311 582 q 1308 554 1308 567 q 1305 529 1307 542 q 1302 508 1303 517 q 1301 499 1301 499 l 1301 443 l 1301 390 m 1818 499 q 1819 488 1818 494 q 1821 475 1819 481 q 1825 469 1821 475 q 1825 467 1825 468 l 1836 467 l 1846 467 q 1849 471 1847 467 q 1853 475 1851 475 q 1860 491 1856 481 q 1864 507 1864 501 q 1868 519 1865 507 q 1872 535 1871 531 q 1875 545 1874 539 q 1876 556 1876 551 q 1883 587 1879 565 q 1890 630 1886 608 q 1897 671 1894 651 q 1901 694 1900 690 q 1906 723 1903 703 q 1911 765 1908 743 q 1917 805 1914 786 q 1921 832 1919 824 q 1923 850 1921 835 q 1925 868 1925 865 l 1925 872 l 1925 878 q 1922 889 1925 878 q 1921 897 1921 892 q 1917 902 1919 897 q 1914 907 1914 907 l 1904 907 l 1897 907 q 1891 899 1897 907 q 1882 889 1885 892 q 1876 878 1881 885 q 1869 868 1871 872 q 1866 859 1869 865 q 1861 850 1863 853 q 1857 835 1860 844 q 1853 822 1854 825 q 1849 801 1851 815 q 1842 771 1846 786 q 1837 742 1839 756 q 1833 724 1835 728 q 1830 699 1833 722 q 1825 667 1826 676 q 1824 650 1825 665 q 1821 631 1824 635 q 1819 617 1819 625 q 1819 601 1819 610 q 1818 583 1818 593 l 1818 539 l 1818 499 m 1611 658 q 1615 649 1613 656 q 1619 640 1618 642 l 1625 640 l 1631 640 q 1635 642 1633 640 q 1640 649 1638 644 q 1647 668 1642 653 q 1656 686 1653 683 q 1660 705 1657 690 q 1664 724 1663 719 q 1667 756 1664 733 q 1671 781 1671 778 l 1671 808 l 1671 840 q 1669 850 1671 843 q 1667 860 1668 857 q 1663 863 1665 860 q 1658 868 1660 865 l 1656 868 l 1651 868 q 1643 860 1647 860 q 1638 845 1642 856 q 1631 832 1633 835 q 1626 805 1631 826 q 1619 772 1621 783 q 1617 760 1619 772 q 1614 743 1615 749 q 1613 722 1614 735 q 1611 706 1611 708 l 1611 681 l 1611 658 z "},"G":{"ha":549,"x_min":26,"x_max":549,"o":"m 93 1183 q 108 1178 97 1183 q 122 1174 119 1174 q 138 1156 126 1168 q 151 1140 149 1143 l 151 1051 q 154 988 153 1033 q 157 892 156 943 q 160 797 158 842 q 164 733 163 751 q 165 722 161 731 q 172 714 169 714 q 178 711 175 711 q 186 710 181 710 q 194 711 192 710 q 201 714 197 711 q 216 720 206 715 q 239 733 226 725 q 263 747 251 740 q 279 757 274 753 q 287 764 281 758 q 301 776 293 769 q 315 789 308 783 q 325 799 322 794 q 347 822 335 807 q 372 851 360 836 q 394 876 385 865 q 403 886 403 886 q 409 904 404 889 q 420 940 414 919 q 432 983 426 961 q 442 1018 438 1006 q 447 1040 443 1024 q 453 1061 451 1057 q 454 1077 453 1065 q 457 1101 456 1089 q 460 1125 458 1114 q 463 1140 461 1136 q 465 1151 463 1143 q 469 1160 468 1157 q 481 1167 472 1164 q 492 1174 489 1169 l 511 1174 l 529 1174 q 534 1169 531 1174 q 540 1160 538 1164 q 546 1149 542 1158 q 549 1140 547 1143 l 549 1101 l 549 1061 q 547 1036 549 1056 q 541 994 544 1017 q 534 951 538 972 q 529 919 531 931 q 526 903 529 915 q 519 886 522 890 q 513 874 518 883 q 501 855 507 865 q 490 835 496 844 q 482 822 485 825 q 471 808 479 818 q 453 785 463 797 q 436 763 444 774 q 425 747 428 751 q 410 729 419 740 q 390 708 400 718 q 374 690 381 699 q 365 681 367 682 q 348 665 360 675 q 322 645 336 656 q 296 626 308 635 q 279 615 283 617 q 263 606 275 611 q 235 597 250 601 q 208 588 221 592 q 192 582 196 583 q 183 571 190 578 q 172 558 176 564 q 163 546 169 553 q 157 535 157 539 l 157 33 l 147 24 q 140 17 144 19 q 135 10 136 14 q 122 3 129 7 q 114 0 115 0 l 90 0 l 64 0 q 57 3 61 1 q 47 10 49 7 q 41 17 44 14 q 36 24 38 19 q 31 35 35 24 q 26 43 28 40 l 26 1118 q 30 1133 26 1122 q 36 1150 33 1144 q 45 1161 38 1153 q 56 1174 53 1169 q 66 1178 58 1174 q 75 1183 74 1183 l 85 1183 l 93 1183 m 218 1042 q 219 1053 218 1049 q 221 1061 219 1058 q 224 1074 221 1065 q 231 1085 228 1082 q 243 1103 232 1090 q 258 1118 254 1115 q 269 1124 261 1122 q 279 1126 276 1126 q 282 1128 281 1126 q 285 1129 285 1128 q 288 1131 286 1131 q 290 1129 289 1131 q 293 1128 292 1128 q 297 1126 296 1126 q 306 1124 299 1126 q 317 1118 314 1122 q 332 1107 321 1115 q 346 1094 343 1099 q 348 1093 347 1094 q 351 1090 349 1092 l 354 1085 q 361 1068 357 1081 q 365 1051 365 1056 q 361 1029 365 1047 q 354 1008 357 1011 q 343 994 354 1006 q 325 976 332 982 q 317 969 324 974 q 308 964 310 964 l 288 964 l 268 964 q 259 969 265 964 q 250 976 253 974 q 240 987 247 981 q 231 997 232 993 q 224 1008 228 1000 q 221 1018 221 1015 q 219 1026 219 1022 q 218 1035 218 1031 q 218 1042 218 1039 z "},"a":{"ha":558,"x_min":3,"x_max":536,"o":"m 343 586 q 317 574 336 583 q 278 555 299 565 q 241 535 258 544 q 217 522 224 525 q 206 515 214 519 q 188 506 197 511 q 171 496 179 500 q 158 490 163 492 q 150 485 157 489 q 134 478 143 482 q 117 472 125 475 q 104 467 108 468 q 97 463 103 465 q 85 460 92 461 q 72 458 78 458 q 63 457 65 457 l 53 457 l 49 457 q 33 462 43 457 q 19 467 24 467 q 13 477 17 469 q 8 490 8 485 l 6 497 q 3 507 3 503 q 6 515 3 508 l 8 522 q 24 535 15 528 q 37 546 31 540 q 49 556 43 551 q 62 563 53 557 q 81 575 71 568 q 102 588 92 582 q 117 597 113 593 q 124 602 118 599 q 138 608 131 606 q 151 615 144 611 q 158 619 157 618 q 171 627 163 622 q 188 637 179 632 q 206 647 197 642 q 217 651 214 651 q 232 659 219 653 q 259 673 244 665 q 285 687 274 681 q 301 694 297 693 l 343 726 q 358 744 349 732 q 368 760 368 757 l 368 1108 q 374 1123 368 1111 q 385 1140 381 1135 q 389 1144 386 1142 q 394 1149 392 1147 q 397 1150 396 1150 q 412 1156 400 1153 q 426 1160 424 1160 q 442 1161 435 1160 q 454 1163 447 1161 q 464 1164 461 1164 q 472 1163 467 1164 q 482 1161 476 1161 q 493 1160 488 1160 q 505 1154 497 1158 q 519 1145 513 1150 q 531 1135 525 1140 q 536 1128 536 1131 l 536 33 q 526 24 536 32 q 510 11 517 17 q 497 5 508 8 q 481 1 485 1 q 472 0 476 0 q 466 -1 469 -1 q 460 -1 463 -1 q 455 -1 458 -1 q 447 0 451 -1 q 439 1 443 0 q 431 2 436 1 q 420 5 426 3 q 408 8 414 7 q 397 11 401 10 l 385 22 q 379 28 382 25 q 375 35 376 32 q 368 43 371 40 l 368 575 q 363 581 368 578 q 356 586 358 583 l 347 586 l 343 586 z "},"c":{"ha":218,"x_min":29,"x_max":189,"o":"m 108 1165 q 133 1156 118 1161 q 147 1147 147 1150 q 164 1135 153 1147 q 178 1119 175 1124 q 185 1103 181 1114 q 189 1089 189 1092 l 189 514 q 188 497 189 508 q 184 475 186 486 q 181 453 182 464 q 178 442 179 443 q 165 420 175 433 q 147 407 156 407 q 132 406 139 406 q 119 403 125 403 q 108 403 114 403 q 88 405 103 403 q 68 407 72 407 q 56 420 65 407 q 44 442 47 433 q 40 451 42 443 q 35 469 38 460 q 31 486 32 478 q 29 499 29 494 l 29 1089 q 35 1103 29 1092 q 44 1119 42 1114 q 56 1133 47 1124 q 68 1147 65 1143 q 83 1156 72 1150 q 97 1165 94 1161 l 104 1165 l 108 1165 z "},"d":{"ha":558,"x_min":3,"x_max":542,"o":"m 281 660 q 290 684 282 668 q 308 717 297 700 q 327 751 318 735 q 343 772 336 767 l 343 965 q 337 977 343 969 q 328 989 331 985 l 314 989 l 290 989 q 267 976 286 985 q 242 965 249 968 q 214 946 236 961 q 167 914 192 931 q 119 882 142 897 q 92 864 97 867 q 80 856 90 860 q 67 853 69 853 q 64 851 65 851 q 56 850 60 850 q 49 851 51 850 q 44 853 46 851 q 24 869 38 856 q 7 886 10 882 l 4 890 q 3 897 3 892 q 4 903 3 901 l 7 907 q 20 922 10 911 q 42 942 31 932 q 64 963 53 953 q 82 975 75 972 q 96 985 83 976 q 124 1006 108 994 q 154 1026 139 1017 q 179 1042 169 1036 q 198 1053 182 1044 q 217 1065 214 1061 q 228 1072 219 1067 q 248 1085 238 1078 q 268 1101 258 1093 q 281 1110 278 1108 q 292 1117 282 1114 q 306 1124 303 1119 q 317 1131 308 1125 q 335 1144 325 1136 q 355 1158 346 1151 q 365 1167 364 1165 q 381 1173 372 1169 q 392 1176 389 1176 q 399 1178 396 1176 q 405 1179 401 1178 q 411 1181 408 1181 q 417 1179 414 1181 q 422 1178 419 1178 q 429 1176 426 1176 q 440 1168 431 1176 q 454 1157 450 1160 q 463 1144 458 1151 q 467 1133 467 1136 l 467 785 q 476 757 467 782 q 492 718 486 732 q 497 707 492 715 q 503 694 501 699 q 511 687 506 693 q 523 673 517 681 q 535 658 529 665 q 542 650 540 651 l 542 633 l 542 617 q 528 594 538 610 q 510 559 519 578 q 491 524 500 540 q 478 500 482 507 q 471 478 475 494 q 467 457 467 461 l 467 28 q 463 19 464 25 q 458 13 460 17 q 454 8 456 10 q 448 0 453 6 q 440 -6 443 -6 l 403 -6 l 365 -6 l 361 0 q 357 5 358 3 q 353 8 356 7 q 347 19 353 10 q 343 28 344 25 l 343 467 q 337 482 343 469 q 328 500 331 494 q 324 513 328 503 q 318 525 319 522 q 303 542 314 528 q 290 558 293 556 q 284 577 288 564 q 281 593 281 590 l 281 631 l 281 660 z "},"e":{"ha":342,"x_min":19,"x_max":325,"o":"m 25 553 q 22 568 24 561 q 19 590 19 581 q 31 666 19 631 q 63 733 43 701 q 108 790 83 764 q 158 839 133 817 l 158 1167 l 286 1167 l 286 740 q 320 704 315 722 q 325 660 325 686 q 324 652 325 657 q 322 640 324 647 q 319 625 319 633 q 317 602 319 619 q 310 565 314 585 q 303 527 306 544 q 300 506 300 510 q 296 449 297 486 q 292 364 294 411 q 288 265 290 317 q 285 166 286 214 q 282 81 283 118 q 281 26 281 43 q 257 6 275 6 q 224 6 239 6 q 211 4 221 6 q 190 5 201 3 q 168 12 178 7 q 158 26 158 17 l 158 410 l 25 553 m 156 690 q 140 685 147 697 q 126 655 132 674 q 115 619 119 636 q 108 600 111 601 q 114 572 111 583 q 118 551 117 560 q 119 540 119 543 l 153 499 l 156 683 l 156 690 z "},"f":{"ha":597,"x_min":22,"x_max":593,"o":"m 75 1190 q 85 1188 79 1190 q 93 1186 92 1186 l 100 1183 q 108 1176 107 1181 q 115 1172 111 1176 q 119 1167 118 1167 q 128 1151 122 1160 l 133 1143 l 133 969 q 144 967 136 969 q 154 967 153 964 q 163 971 156 967 q 178 980 169 975 q 194 991 186 985 q 207 1000 203 997 q 219 1008 208 1000 q 233 1019 229 1017 q 238 1027 233 1024 q 242 1033 242 1031 q 256 1053 247 1040 q 272 1078 264 1065 q 287 1099 281 1090 q 293 1110 293 1108 q 297 1119 294 1111 q 303 1137 300 1126 q 308 1156 306 1147 q 313 1167 311 1164 l 319 1176 q 331 1183 325 1181 q 338 1186 336 1186 q 342 1189 339 1186 q 344 1190 343 1189 q 347 1190 344 1190 q 349 1190 347 1190 q 353 1189 350 1189 q 357 1186 354 1186 l 364 1183 q 372 1176 369 1181 q 379 1169 375 1174 l 383 1167 l 383 1150 l 383 1133 q 378 1119 382 1131 q 371 1093 375 1108 q 363 1064 367 1078 q 357 1043 358 1050 q 351 1032 354 1040 q 347 1019 349 1024 q 340 1010 346 1018 q 328 992 335 1001 q 315 971 321 982 q 304 953 308 960 q 299 948 303 953 q 293 943 296 943 q 276 928 288 939 q 251 908 264 918 q 228 888 239 897 q 214 876 218 878 q 205 870 213 875 q 188 860 197 865 q 172 850 179 856 q 163 843 164 844 q 153 833 160 840 q 146 819 147 825 q 140 811 143 819 q 136 800 138 803 q 133 791 135 797 q 131 781 132 785 q 128 767 129 774 l 128 743 l 128 719 q 131 717 129 718 l 136 710 q 145 703 138 707 q 154 700 153 700 l 158 700 l 163 700 q 176 703 165 700 q 188 710 186 707 q 202 717 192 711 q 224 729 213 722 q 249 743 236 736 q 267 753 261 750 q 278 760 271 757 q 286 767 286 764 q 301 780 290 769 q 324 800 313 790 q 344 820 335 810 q 357 833 353 831 q 365 844 358 835 q 381 864 372 853 q 397 885 389 875 q 408 900 406 894 q 422 916 414 906 q 438 939 429 926 q 453 963 446 951 q 463 976 460 974 q 467 986 464 978 q 474 1004 469 994 q 483 1022 479 1014 q 489 1033 486 1031 q 493 1049 489 1036 q 497 1067 497 1061 q 498 1076 497 1068 q 501 1093 499 1083 q 503 1110 503 1103 q 504 1119 504 1118 q 510 1140 507 1128 q 514 1153 513 1153 q 521 1166 514 1158 q 531 1176 528 1174 q 542 1181 532 1176 q 557 1186 553 1186 l 563 1186 l 568 1186 q 575 1183 569 1186 q 583 1176 581 1181 q 589 1169 586 1172 l 593 1167 l 593 1133 l 593 1100 q 590 1078 593 1094 q 583 1053 586 1061 q 581 1044 583 1051 q 576 1026 579 1036 q 570 1009 572 1017 q 568 1000 568 1001 q 562 983 565 997 q 557 967 558 969 q 554 954 557 961 q 549 943 551 947 q 541 928 547 939 q 527 904 535 917 q 514 881 519 892 q 504 867 508 869 q 497 853 503 864 q 483 833 490 843 q 470 813 476 824 q 463 800 464 803 q 443 775 457 792 q 425 753 429 758 q 417 745 425 751 q 399 729 408 739 q 380 711 390 719 q 364 700 369 703 q 347 685 358 694 q 324 664 336 675 q 301 644 311 653 q 286 633 290 635 q 276 627 283 631 q 267 619 269 624 q 253 614 264 618 q 228 605 242 610 q 203 594 215 600 q 188 586 192 589 q 172 583 186 586 q 154 576 157 581 q 145 566 153 574 q 136 553 138 558 q 131 532 133 549 q 128 510 128 515 l 128 33 q 121 22 128 31 q 108 10 114 14 q 97 3 107 7 q 83 0 86 0 l 75 0 l 67 0 q 53 3 64 0 q 42 10 43 7 q 35 15 39 10 q 31 19 32 19 l 22 43 l 22 1143 q 25 1154 22 1147 q 31 1167 28 1161 q 35 1172 32 1167 q 42 1176 39 1176 q 50 1183 43 1181 l 57 1186 q 65 1188 58 1186 q 75 1190 71 1190 z "},"g":{"ha":549,"x_min":26,"x_max":549,"o":"m 93 1183 q 108 1178 97 1183 q 122 1174 119 1174 q 138 1156 126 1168 q 151 1140 149 1143 l 151 1051 q 154 988 153 1033 q 157 892 156 943 q 160 797 158 842 q 164 733 163 751 q 165 722 161 731 q 172 714 169 714 q 178 711 175 711 q 186 710 181 710 q 194 711 192 710 q 201 714 197 711 q 216 720 206 715 q 239 733 226 725 q 263 747 251 740 q 279 757 274 753 q 287 764 281 758 q 301 776 293 769 q 315 789 308 783 q 325 799 322 794 q 347 822 335 807 q 372 851 360 836 q 394 876 385 865 q 403 886 403 886 q 409 904 404 889 q 420 940 414 919 q 432 983 426 961 q 442 1018 438 1006 q 447 1040 443 1024 q 453 1061 451 1057 q 454 1077 453 1065 q 457 1101 456 1089 q 460 1125 458 1114 q 463 1140 461 1136 q 465 1151 463 1143 q 469 1160 468 1157 q 481 1167 472 1164 q 492 1174 489 1169 l 511 1174 l 529 1174 q 534 1169 531 1174 q 540 1160 538 1164 q 546 1149 542 1158 q 549 1140 547 1143 l 549 1101 l 549 1061 q 547 1036 549 1056 q 541 994 544 1017 q 534 951 538 972 q 529 919 531 931 q 526 903 529 915 q 519 886 522 890 q 513 874 518 883 q 501 855 507 865 q 490 835 496 844 q 482 822 485 825 q 471 808 479 818 q 453 785 463 797 q 436 763 444 774 q 425 747 428 751 q 410 729 419 740 q 390 708 400 718 q 374 690 381 699 q 365 681 367 682 q 348 665 360 675 q 322 645 336 656 q 296 626 308 635 q 279 615 283 617 q 263 606 275 611 q 235 597 250 601 q 208 588 221 592 q 192 582 196 583 q 183 571 190 578 q 172 558 176 564 q 163 546 169 553 q 157 535 157 539 l 157 33 l 147 24 q 140 17 144 19 q 135 10 136 14 q 122 3 129 7 q 114 0 115 0 l 90 0 l 64 0 q 57 3 61 1 q 47 10 49 7 q 41 17 44 14 q 36 24 38 19 q 31 35 35 24 q 26 43 28 40 l 26 1118 q 30 1133 26 1122 q 36 1150 33 1144 q 45 1161 38 1153 q 56 1174 53 1169 q 66 1178 58 1174 q 75 1183 74 1183 l 85 1183 l 93 1183 m 218 1042 q 219 1053 218 1049 q 221 1061 219 1058 q 224 1074 221 1065 q 231 1085 228 1082 q 243 1103 232 1090 q 258 1118 254 1115 q 269 1124 261 1122 q 279 1126 276 1126 q 282 1128 281 1126 q 285 1129 285 1128 q 288 1131 286 1131 q 290 1129 289 1131 q 293 1128 292 1128 q 297 1126 296 1126 q 306 1124 299 1126 q 317 1118 314 1122 q 332 1107 321 1115 q 346 1094 343 1099 q 348 1093 347 1094 q 351 1090 349 1092 l 354 1085 q 361 1068 357 1081 q 365 1051 365 1056 q 361 1029 365 1047 q 354 1008 357 1011 q 343 994 354 1006 q 325 976 332 982 q 317 969 324 974 q 308 964 310 964 l 288 964 l 268 964 q 259 969 265 964 q 250 976 253 974 q 240 987 247 981 q 231 997 232 993 q 224 1008 228 1000 q 221 1018 221 1015 q 219 1026 219 1022 q 218 1035 218 1031 q 218 1042 218 1039 z "},"h":{"ha":618,"x_min":14,"x_max":608,"o":"m 236 451 q 228 442 235 449 q 213 429 221 436 q 199 415 206 422 q 190 406 192 408 q 172 385 186 401 q 142 350 158 368 q 110 315 125 332 q 92 294 96 299 q 83 288 89 292 q 75 285 76 285 q 65 283 72 285 q 54 282 57 282 q 42 283 49 282 q 33 285 36 285 q 24 293 31 285 q 17 306 17 301 q 14 314 14 308 q 14 325 14 319 q 14 333 14 328 q 17 339 14 339 l 219 572 q 224 584 219 575 q 228 597 228 593 l 228 603 l 228 607 q 222 626 225 617 q 219 640 219 633 l 17 874 q 14 881 15 875 q 14 887 14 883 q 14 893 14 890 q 15 908 14 899 q 17 919 17 917 q 19 927 17 924 q 25 931 22 931 l 51 931 l 75 931 q 88 921 76 931 q 103 907 99 911 q 121 886 107 903 q 151 851 135 869 q 182 817 168 833 q 199 797 196 800 q 207 788 201 793 q 219 778 213 783 q 231 769 225 774 q 236 764 236 765 q 250 765 242 760 q 263 769 258 769 l 263 1140 q 272 1151 263 1143 q 286 1164 281 1158 q 296 1170 288 1167 q 307 1174 304 1174 q 310 1175 308 1174 q 313 1176 311 1175 q 314 1176 314 1176 q 317 1176 315 1176 q 319 1175 318 1175 q 324 1174 322 1174 q 333 1170 325 1174 q 344 1164 342 1167 q 362 1146 350 1158 q 374 1131 374 1133 l 374 807 q 376 799 375 803 q 381 786 378 790 q 388 780 383 783 q 393 774 392 776 l 396 774 l 403 774 q 413 780 407 776 q 422 786 419 783 l 538 919 q 546 925 542 922 q 551 928 549 926 q 556 931 553 931 l 569 931 l 585 931 q 590 927 586 931 q 597 919 594 924 q 601 908 597 915 q 604 897 604 900 l 604 883 l 604 874 l 411 653 q 407 642 411 650 q 403 631 403 633 l 403 597 l 403 572 l 604 339 q 606 333 604 336 q 608 325 608 326 q 606 314 608 319 q 604 306 604 308 q 596 293 603 301 q 585 285 589 285 q 577 282 585 282 q 564 282 569 282 q 553 282 560 282 q 547 285 547 282 l 422 428 q 413 435 419 432 q 403 439 407 439 l 396 439 l 393 439 q 388 435 392 439 q 381 428 383 432 q 376 417 379 425 q 374 406 374 408 l 374 28 q 370 17 374 25 q 364 6 367 8 q 355 -2 363 1 q 344 -6 347 -6 l 313 -6 l 286 -6 q 272 6 281 -1 q 263 18 263 14 l 263 439 q 256 445 263 442 q 247 451 250 449 l 242 451 l 236 451 z "},"i":{"ha":193,"x_min":19,"x_max":174,"o":"m 132 1181 l 147 1144 q 148 1062 147 1118 q 150 933 149 1006 q 153 782 151 861 q 157 631 156 703 q 159 503 158 560 q 160 422 160 447 q 174 281 174 344 q 166 168 174 218 q 147 83 158 118 q 126 25 136 47 q 113 -3 117 3 q 118 3 110 -8 q 97 2 108 3 q 75 4 85 1 q 58 13 65 7 q 49 32 51 18 q 41 63 46 42 q 31 105 36 83 q 23 145 26 126 q 19 168 19 164 l 29 775 l 35 1114 l 44 1151 l 68 1176 l 132 1181 z "},"j":{"ha":193,"x_min":19,"x_max":174,"o":"m 132 1181 l 147 1144 q 148 1062 147 1118 q 150 933 149 1006 q 153 782 151 861 q 157 631 156 703 q 159 503 158 560 q 160 422 160 447 q 174 281 174 344 q 166 168 174 218 q 147 83 158 118 q 126 25 136 47 q 113 -3 117 3 q 118 3 110 -8 q 97 2 108 3 q 75 4 85 1 q 58 13 65 7 q 49 32 51 18 q 41 63 46 42 q 31 105 36 83 q 23 145 26 126 q 19 168 19 164 l 29 775 l 35 1114 l 44 1151 l 68 1176 l 132 1181 z "},"k":{"ha":547,"x_min":25,"x_max":547,"o":"m 92 1183 q 107 1178 96 1183 q 119 1174 118 1174 q 136 1156 125 1168 q 149 1140 147 1143 l 149 1051 q 151 988 150 1033 q 155 892 153 943 q 158 797 157 842 q 161 733 160 751 q 163 722 158 731 q 169 714 168 714 q 175 711 172 711 q 185 710 179 710 q 192 711 189 710 q 199 714 196 711 q 214 720 203 715 q 237 733 225 725 q 260 747 249 740 q 276 757 271 753 q 285 764 279 758 q 299 776 292 769 q 313 789 307 783 q 324 799 319 794 q 345 822 332 807 q 370 851 358 836 q 391 876 382 865 q 401 886 400 886 q 408 904 403 889 q 419 940 413 919 q 431 983 425 961 q 439 1018 436 1006 q 445 1040 442 1024 q 451 1061 449 1057 q 452 1077 451 1065 q 454 1101 453 1089 q 457 1125 456 1114 q 460 1140 458 1136 q 464 1151 460 1143 q 468 1160 465 1157 q 478 1167 469 1164 q 489 1174 486 1169 l 508 1174 l 526 1174 q 533 1169 529 1174 q 538 1160 536 1164 q 543 1149 539 1158 q 547 1140 546 1143 l 547 1101 l 547 1061 q 544 1036 547 1056 q 539 994 542 1017 q 533 951 536 972 q 526 919 529 931 q 523 903 526 915 q 518 886 519 890 q 510 874 515 883 q 499 855 504 865 q 488 835 493 844 q 481 822 482 825 q 468 808 476 818 q 451 785 460 797 q 433 763 442 774 q 422 747 425 751 q 407 729 417 740 q 388 708 397 718 q 372 690 379 699 q 364 681 364 682 q 346 665 358 675 q 319 645 333 656 q 293 626 306 635 q 276 615 281 617 q 260 606 274 611 q 233 597 247 601 q 206 588 219 592 q 190 582 193 583 q 181 571 188 578 q 169 558 175 564 q 161 546 168 553 q 154 535 154 539 l 154 33 l 146 24 q 138 17 142 19 q 132 10 135 14 q 120 3 126 7 q 111 0 114 0 l 88 0 l 63 0 q 54 3 58 1 q 44 10 47 7 q 39 17 42 14 q 33 24 36 19 q 28 35 32 24 q 25 43 25 40 l 25 1118 q 28 1133 25 1122 q 33 1150 31 1144 q 44 1161 36 1153 q 53 1174 51 1169 q 63 1178 56 1174 q 74 1183 71 1183 l 82 1183 l 92 1183 z "},"l":{"ha":525,"x_min":25,"x_max":526,"o":"m 115 1167 q 129 1162 118 1167 q 143 1153 140 1157 q 167 1138 149 1150 q 213 1110 186 1126 q 268 1076 239 1094 q 322 1042 297 1058 q 367 1015 347 1026 q 392 1000 386 1003 q 399 995 393 999 q 411 988 404 992 q 424 981 418 985 q 431 976 431 978 q 445 968 435 975 q 468 952 456 961 q 492 934 481 943 q 510 919 504 925 q 515 918 513 919 q 519 915 518 917 q 526 910 524 911 l 526 886 l 526 867 q 514 854 524 861 q 499 843 504 847 l 486 843 l 471 843 q 463 847 469 844 q 447 853 456 850 q 431 860 439 857 q 419 867 424 864 q 410 873 418 868 q 394 883 403 878 q 377 894 385 889 q 368 900 369 899 q 344 915 358 906 q 314 932 329 924 q 287 947 299 940 q 274 953 275 953 q 263 960 269 956 q 248 967 256 964 q 233 972 240 969 q 222 976 225 975 l 210 976 l 194 976 q 189 975 192 976 q 182 972 186 974 q 175 967 178 968 l 175 22 q 164 10 175 18 q 143 1 153 1 q 129 0 136 0 q 117 -1 124 -1 q 108 -1 110 -1 q 83 0 99 -1 q 64 1 67 1 q 50 5 61 1 q 36 11 39 8 q 29 24 33 15 q 25 35 25 32 l 25 1133 q 29 1143 25 1136 q 36 1153 33 1150 q 50 1160 39 1157 q 64 1167 61 1164 l 92 1167 l 115 1167 z "},"m":{"ha":576,"x_min":8,"x_max":576,"o":"m 8 1065 q 9 1081 8 1069 q 10 1103 10 1092 q 10 1126 10 1115 q 11 1140 11 1136 q 18 1152 11 1144 q 26 1164 25 1160 l 40 1164 l 53 1164 q 61 1160 54 1164 q 69 1153 68 1157 q 75 1147 72 1150 q 78 1140 78 1143 q 81 1127 79 1136 q 83 1108 82 1118 q 86 1087 85 1097 q 89 1075 88 1076 q 92 1048 90 1065 q 97 1014 94 1031 q 102 983 100 997 q 104 967 104 968 q 108 951 106 961 q 113 931 110 942 q 118 910 115 919 q 122 900 121 901 q 135 878 125 897 q 147 857 146 860 q 157 840 150 853 q 165 825 164 828 q 168 819 165 822 q 174 811 171 815 q 182 803 176 808 q 193 794 188 799 q 203 785 199 789 q 207 778 207 781 l 217 778 l 225 778 q 233 790 229 782 q 238 801 238 799 l 238 1140 q 242 1151 238 1143 q 250 1164 247 1160 q 260 1170 253 1167 q 269 1174 267 1174 q 281 1175 275 1174 q 288 1176 285 1175 q 294 1176 292 1176 q 309 1175 300 1176 q 319 1174 318 1174 q 332 1165 324 1174 q 340 1153 340 1157 l 340 801 q 346 790 340 799 q 353 778 351 782 l 361 778 l 371 778 q 383 790 374 782 q 397 801 393 797 q 406 814 399 806 q 413 825 413 822 q 421 839 415 828 q 433 862 426 850 q 447 884 440 874 q 456 900 453 894 q 461 910 458 903 q 464 924 464 918 q 469 940 465 928 q 475 957 472 953 q 477 981 475 961 q 482 1022 479 1000 q 487 1064 485 1044 q 489 1089 489 1083 q 494 1109 492 1093 q 500 1131 497 1125 q 503 1142 500 1133 q 508 1153 506 1150 l 515 1164 q 525 1170 519 1167 q 533 1174 531 1174 q 538 1175 536 1174 q 541 1176 540 1175 q 543 1176 542 1176 l 551 1174 q 558 1165 554 1169 q 567 1153 564 1156 q 572 1142 569 1150 q 576 1131 575 1133 l 576 1117 l 576 1099 q 574 1073 575 1090 q 572 1038 574 1056 q 569 1006 569 1019 q 567 989 568 992 q 564 973 567 985 q 558 957 561 961 q 549 922 554 943 q 539 882 544 900 q 525 835 533 858 q 519 825 525 833 q 506 807 514 817 q 492 786 499 797 q 481 768 486 775 q 473 757 479 765 q 460 740 467 749 q 447 723 453 731 q 438 714 442 715 q 422 696 435 708 q 404 681 408 683 q 392 675 403 681 q 379 669 381 669 q 370 665 376 669 q 361 660 364 660 q 356 653 358 657 q 349 644 353 649 q 340 636 344 640 l 340 22 l 336 18 q 332 15 333 17 q 328 11 331 14 q 318 5 324 8 q 310 1 313 1 q 301 0 306 0 q 294 -1 297 -1 q 289 -1 292 -1 q 276 0 281 -1 q 269 1 272 0 q 260 5 267 1 q 250 11 254 8 q 243 18 247 15 q 238 22 240 19 l 238 636 q 229 644 233 640 q 217 660 219 656 q 208 665 214 660 q 199 669 201 669 q 186 675 197 669 q 174 681 175 681 q 167 688 172 682 q 154 701 161 693 q 140 715 147 708 q 131 725 133 722 q 118 740 128 728 q 104 758 108 753 q 95 772 101 761 q 82 792 89 782 q 69 812 75 801 q 64 825 64 822 q 58 833 61 825 q 53 844 54 842 q 47 861 51 849 q 40 888 43 874 q 32 917 36 903 q 26 933 28 931 q 23 944 26 936 q 19 957 19 953 q 14 973 17 961 q 11 989 11 985 q 10 999 11 990 q 10 1021 10 1008 q 9 1045 10 1033 q 8 1065 8 1057 z "},"n":{"ha":585,"x_min":25,"x_max":585,"o":"m 103 1193 q 113 1192 107 1193 q 126 1192 119 1192 q 143 1190 135 1190 q 158 1187 147 1190 q 175 1181 168 1183 l 188 1169 q 197 1153 192 1165 q 201 1136 201 1140 l 201 781 q 213 764 201 776 q 232 747 225 751 q 242 738 236 743 q 255 728 247 733 q 268 719 263 724 q 275 714 274 715 q 292 705 279 711 q 319 691 304 699 q 348 678 335 683 q 364 669 361 672 q 374 663 365 668 q 393 653 383 658 q 411 644 403 649 q 421 636 419 639 q 429 631 422 635 q 444 625 436 628 q 458 619 451 622 q 465 614 464 615 q 481 603 469 610 q 504 590 492 597 q 526 576 517 582 q 540 568 536 569 l 585 535 l 585 518 l 585 501 q 578 490 585 497 q 571 478 571 482 q 558 473 568 478 q 540 468 547 468 l 531 468 l 526 468 q 503 472 519 468 q 483 478 486 475 q 469 483 478 481 q 451 490 460 486 q 433 497 442 493 q 421 501 425 500 q 411 508 419 503 q 393 519 403 514 q 374 528 383 524 q 364 535 365 533 q 340 549 358 539 q 300 569 321 558 q 260 590 279 581 q 232 603 240 599 l 224 603 l 219 603 q 208 596 215 600 q 201 589 201 592 l 201 44 q 196 35 197 40 q 192 28 193 32 q 188 22 190 25 l 175 11 q 151 5 168 8 q 131 1 133 1 q 119 0 126 1 q 108 -1 111 -1 q 101 -1 104 -1 q 93 0 97 -1 q 86 1 89 0 q 71 5 83 1 q 56 11 58 8 q 37 24 49 17 q 25 35 25 32 l 25 1157 q 30 1164 25 1158 q 42 1175 35 1169 q 56 1185 49 1181 q 69 1190 64 1189 q 85 1192 72 1190 q 103 1193 97 1193 z "},"o":{"ha":508,"x_min":-3,"x_max":485,"o":"m 308 431 q 297 423 306 426 q 286 417 289 419 q 274 408 283 415 q 253 394 264 401 q 234 381 243 386 q 222 374 225 375 q 215 369 221 372 q 203 362 210 365 q 192 355 197 358 q 185 350 186 351 q 176 344 183 349 q 161 334 169 340 q 145 324 153 328 q 136 318 138 319 q 124 313 132 317 q 108 306 117 310 q 93 301 100 303 q 83 299 86 299 q 71 297 76 297 q 61 294 65 294 q 54 294 57 294 q 47 294 51 294 q 36 297 42 294 q 25 299 31 297 q 15 302 21 299 q 8 308 8 306 l 8 336 l 8 364 q 19 372 14 367 q 36 383 29 382 q 46 392 38 385 q 64 406 54 399 q 83 420 74 414 q 99 431 93 426 q 121 445 106 435 q 152 465 136 456 q 181 483 168 475 q 197 494 193 492 q 209 500 199 494 q 222 506 219 506 q 234 513 225 507 q 253 526 243 518 q 274 540 264 533 q 286 549 283 547 q 292 553 286 550 q 305 560 299 557 q 317 567 311 564 q 324 572 322 569 q 330 583 325 575 q 335 593 335 590 l 335 725 q 331 731 332 726 q 326 733 328 732 q 324 735 325 735 l 308 735 l 297 735 q 280 726 294 735 q 260 714 265 718 q 230 694 251 708 q 185 665 208 681 q 140 634 161 649 q 110 614 118 619 q 93 608 108 614 q 72 603 78 603 l 54 603 l 36 603 q 22 608 32 603 q 8 614 11 614 q 4 625 8 617 q -3 636 0 633 l -3 643 l -3 647 q 3 659 -3 651 q 8 669 8 667 q 23 682 14 674 q 42 699 32 690 q 61 716 53 708 q 72 725 69 724 q 103 744 78 728 q 159 780 129 761 q 215 815 189 799 q 249 835 242 832 l 260 844 q 267 849 261 847 q 278 856 272 851 q 290 863 285 860 q 297 867 296 865 q 311 876 303 869 q 325 886 319 882 q 342 900 333 893 l 342 1140 q 349 1151 342 1143 q 361 1164 356 1158 q 367 1169 361 1167 q 372 1174 369 1172 q 390 1175 375 1174 q 414 1176 404 1176 q 422 1176 415 1176 q 433 1175 428 1175 q 447 1174 440 1174 q 458 1168 451 1172 q 469 1158 464 1164 q 480 1147 475 1153 q 485 1140 485 1142 l 485 35 q 474 24 485 32 q 458 11 464 17 q 447 5 456 8 q 436 1 439 1 q 424 0 433 1 q 410 -1 415 -1 q 395 0 404 -1 q 383 1 386 1 q 374 6 378 3 q 361 11 364 8 q 356 15 358 14 q 351 18 353 17 q 346 22 347 19 l 346 383 q 342 399 346 386 q 335 417 338 411 q 329 423 335 419 q 324 431 324 426 l 315 431 l 308 431 z "},"p":{"ha":544,"x_min":11,"x_max":539,"o":"m 19 853 l 11 1144 q 17 1163 11 1157 q 31 1170 24 1168 q 47 1171 39 1172 q 58 1169 54 1169 q 95 1148 82 1169 q 114 1092 108 1126 q 119 1013 119 1057 q 119 925 119 968 q 122 844 119 882 q 136 781 125 806 l 142 781 q 183 806 158 781 q 237 869 208 831 q 296 950 265 907 q 353 1031 326 993 q 403 1094 381 1069 q 439 1119 425 1119 q 454 1119 443 1119 q 465 1111 465 1118 q 481 1099 472 1107 q 494 1078 486 1090 q 508 1043 501 1065 q 501 1027 507 1040 q 489 998 496 1014 q 476 967 482 982 q 465 944 469 951 q 353 800 407 872 q 233 667 300 728 q 228 658 233 664 q 215 644 222 651 q 197 631 208 639 l 197 603 q 206 591 200 600 q 219 570 213 582 q 233 547 226 558 q 242 531 239 536 q 266 492 249 518 q 306 433 283 465 q 353 364 329 400 q 401 296 378 328 q 441 237 424 264 q 465 199 458 210 q 483 172 471 189 q 506 138 494 156 q 525 106 517 119 q 533 90 533 93 q 536 85 535 89 q 538 79 536 82 q 539 74 539 76 q 535 43 539 60 q 524 13 531 26 q 508 -6 518 -1 q 489 0 499 -11 l 465 32 q 433 72 456 43 q 385 132 410 100 q 338 191 360 164 q 308 232 317 218 q 269 291 286 258 q 236 350 253 324 q 200 395 219 376 q 153 414 181 414 l 153 65 q 148 49 153 58 q 138 29 143 39 q 126 13 132 19 q 115 7 119 7 q 99 10 113 3 q 70 29 85 17 q 44 58 56 42 q 32 90 32 75 l 19 783 l 19 853 z "},"q":{"ha":549,"x_min":25,"x_max":547,"o":"m 92 1183 q 107 1178 96 1183 q 119 1174 118 1174 q 136 1156 125 1168 q 149 1140 147 1143 l 149 1051 q 151 988 150 1033 q 155 892 153 943 q 158 797 157 842 q 161 733 160 751 q 163 722 158 731 q 169 714 168 714 q 175 711 172 711 q 185 710 179 710 q 192 711 189 710 q 199 714 196 711 q 214 720 203 715 q 237 733 225 725 q 260 747 249 740 q 276 757 271 753 q 285 764 279 758 q 299 776 292 769 q 313 789 307 783 q 324 799 319 794 q 345 822 332 807 q 370 851 358 836 q 391 876 382 865 q 401 886 400 886 q 408 904 403 889 q 419 940 413 919 q 431 983 425 961 q 439 1018 436 1006 q 445 1040 442 1024 q 451 1061 449 1057 q 452 1077 451 1065 q 454 1101 453 1089 q 457 1125 456 1114 q 460 1140 458 1136 q 464 1151 460 1143 q 468 1160 465 1157 q 478 1167 469 1164 q 489 1174 486 1169 l 508 1174 l 526 1174 q 533 1169 529 1174 q 538 1160 536 1164 q 543 1149 539 1158 q 547 1140 546 1143 l 547 1101 l 547 1061 q 544 1036 547 1056 q 539 994 542 1017 q 533 951 536 972 q 526 919 529 931 q 523 903 526 915 q 518 886 519 890 q 510 874 515 883 q 499 855 504 865 q 488 835 493 844 q 481 822 482 825 q 468 808 476 818 q 451 785 460 797 q 433 763 442 774 q 422 747 425 751 q 407 729 417 740 q 388 708 397 718 q 372 690 379 699 q 364 681 364 682 q 346 665 358 675 q 319 645 333 656 q 293 626 306 635 q 276 615 281 617 q 260 606 274 611 q 233 597 247 601 q 206 588 219 592 q 190 582 193 583 q 181 571 188 578 q 169 558 175 564 q 161 546 168 553 q 154 535 154 539 l 154 33 l 146 24 q 138 17 142 19 q 132 10 135 14 q 120 3 126 7 q 111 0 114 0 l 88 0 l 63 0 q 54 3 58 1 q 44 10 47 7 q 39 17 42 14 q 33 24 36 19 q 28 35 32 24 q 25 43 25 40 l 25 1118 q 28 1133 25 1122 q 33 1150 31 1144 q 44 1161 36 1153 q 53 1174 51 1169 q 63 1178 56 1174 q 74 1183 71 1183 l 82 1183 l 92 1183 z "},"r":{"ha":561,"x_min":22,"x_max":561,"o":"m 47 32 q 31 206 36 119 q 24 380 25 293 q 23 553 22 467 q 24 728 24 640 q 24 811 24 753 q 26 935 25 869 q 28 1057 26 1000 q 29 1135 29 1114 q 49 1163 35 1158 q 75 1167 63 1167 q 108 1154 92 1167 q 140 1124 125 1142 q 171 1088 156 1107 q 201 1053 186 1068 l 293 949 q 321 913 303 935 q 360 865 339 890 q 398 811 381 839 q 425 761 415 783 q 426 714 425 739 q 426 665 426 689 q 420 622 425 642 q 403 586 415 601 q 380 572 400 581 q 337 553 360 564 q 295 530 314 543 q 276 501 276 517 q 285 456 276 476 q 305 419 293 436 q 329 387 317 401 q 351 357 342 372 q 369 319 356 347 q 399 259 383 292 q 430 199 415 226 q 449 161 444 172 q 485 120 463 140 q 526 81 507 100 q 553 42 544 61 q 547 0 561 22 l 464 0 q 421 22 442 11 q 390 40 404 31 q 375 57 376 50 q 345 101 368 67 q 296 178 322 136 q 247 255 269 219 q 219 300 225 290 q 203 328 208 318 q 192 345 197 339 q 181 358 188 351 q 161 374 175 364 l 158 86 q 157 69 158 83 q 151 40 156 56 q 140 13 147 25 q 121 0 133 0 l 104 0 q 75 7 86 0 q 47 32 64 14 m 144 615 q 170 619 153 615 q 208 632 188 624 q 247 653 228 640 q 276 681 265 665 q 288 717 288 697 q 271 760 288 736 q 262 782 271 764 q 242 822 253 800 q 211 876 228 847 l 144 949 l 144 615 z "},"s":{"ha":464,"x_min":14,"x_max":458,"o":"m 331 740 q 301 713 318 736 q 265 653 285 689 q 224 579 246 618 q 182 508 203 540 q 141 454 161 475 q 103 436 121 433 l 76 436 q 49 436 64 436 q 29 460 33 436 q 27 548 29 485 q 22 682 25 611 q 16 815 18 753 q 14 903 14 878 l 14 1026 l 14 1149 q 31 1174 18 1174 q 56 1174 43 1174 q 69 1174 63 1174 q 84 1174 76 1175 q 97 1166 92 1172 q 103 1149 101 1160 q 113 1056 108 1106 q 118 956 117 1007 q 119 856 119 906 q 119 764 119 807 q 133 736 122 740 q 156 732 143 732 l 172 740 q 193 764 178 744 q 225 804 208 783 q 257 844 242 825 q 278 869 272 864 q 290 894 281 876 q 312 931 300 911 q 333 966 324 950 q 346 985 343 982 l 378 985 q 393 981 381 985 q 420 969 406 976 q 447 950 435 961 q 458 924 458 939 l 429 -1 l 351 1 q 333 14 338 0 q 326 48 328 28 q 326 89 325 68 q 328 124 328 110 q 328 192 328 143 q 330 302 329 240 q 331 432 331 364 q 331 562 331 500 q 331 671 332 624 q 331 740 331 718 z "},"t":{"ha":526,"x_min":4,"x_max":507,"o":"m 308 1006 q 299 1001 306 1003 q 283 994 292 999 q 266 987 274 990 q 253 981 258 983 q 241 974 251 981 q 216 958 231 967 q 187 941 201 950 q 164 926 172 932 q 153 920 161 925 q 137 909 146 915 q 120 898 128 903 q 111 893 113 893 q 99 886 107 890 q 82 878 90 882 q 66 872 74 875 q 56 867 58 868 l 44 867 l 32 867 q 15 878 26 869 q 4 893 4 886 l 4 911 l 4 936 q 8 942 7 939 q 13 945 11 943 q 15 947 14 947 q 36 962 24 951 q 62 981 49 972 q 84 997 75 990 q 96 1006 93 1003 q 103 1010 97 1007 q 115 1017 108 1014 q 126 1024 121 1019 q 135 1031 132 1028 q 161 1045 142 1033 q 206 1074 181 1057 q 261 1108 232 1090 q 316 1142 290 1125 q 361 1170 342 1158 q 388 1185 381 1182 q 394 1189 390 1186 q 401 1194 397 1192 q 413 1200 406 1199 l 439 1200 l 467 1200 q 481 1193 469 1197 q 492 1185 492 1189 q 500 1175 493 1182 q 507 1167 507 1168 l 507 36 q 500 25 507 33 q 492 14 493 17 q 478 6 488 10 q 467 3 469 3 q 448 1 464 3 q 424 0 432 0 q 413 0 419 0 q 401 1 407 0 q 388 3 394 1 q 366 11 379 3 q 353 24 353 19 l 353 994 l 346 1000 q 338 1003 342 1001 q 332 1006 335 1006 l 319 1006 l 308 1006 z "},"u":{"ha":560,"x_min":18,"x_max":549,"o":"m 32 39 q 28 99 31 56 q 23 192 25 143 q 19 283 21 240 q 18 344 18 326 q 20 372 18 350 q 25 422 22 394 q 30 471 28 449 q 32 499 32 493 l 32 560 l 32 628 q 31 675 32 640 q 28 758 31 710 q 25 858 26 806 q 22 959 24 911 q 19 1042 19 1007 q 18 1089 18 1076 l 18 1103 l 18 1111 q 24 1126 19 1117 q 35 1144 29 1135 q 46 1159 42 1153 q 53 1165 50 1165 q 74 1160 61 1167 q 97 1140 86 1153 q 118 1114 108 1128 q 131 1089 128 1100 q 147 1043 135 1081 q 172 962 158 1006 q 199 881 186 918 q 214 835 211 843 q 258 756 232 803 q 312 658 283 710 q 369 547 340 606 q 422 433 397 489 q 467 325 447 376 q 496 233 486 274 q 520 170 510 190 q 537 131 531 150 q 546 84 543 111 q 549 0 549 57 q 520 -8 532 0 q 498 -17 508 -15 q 474 -9 488 -19 q 440 38 461 1 q 389 141 419 74 q 314 322 358 208 q 264 425 292 381 q 214 528 236 469 q 201 560 211 536 q 181 610 192 585 q 156 655 169 635 q 136 675 143 675 q 135 624 136 660 q 133 549 135 589 q 131 472 132 508 q 131 422 131 436 q 135 372 132 414 q 140 283 138 331 q 145 194 143 235 q 150 144 147 153 l 150 85 q 147 44 150 58 q 138 24 144 31 q 119 16 131 17 q 92 15 108 15 q 78 13 88 15 q 60 13 69 11 q 43 19 51 14 q 32 39 35 24 z "},"v":{"ha":578,"x_min":19,"x_max":575,"o":"m 69 1186 q 82 1186 74 1186 q 90 1183 90 1186 q 109 1167 97 1181 q 121 1149 121 1153 l 121 911 l 131 908 q 137 905 133 907 q 142 901 140 903 l 150 901 l 160 901 q 167 907 164 903 q 172 910 169 908 q 175 911 175 911 q 195 929 182 918 q 220 951 208 940 q 242 969 232 961 q 253 981 251 978 q 265 996 256 983 q 281 1014 275 1008 q 292 1031 285 1019 q 306 1053 299 1042 q 317 1072 313 1064 q 324 1082 322 1081 q 328 1094 325 1083 q 333 1117 331 1106 q 339 1138 336 1128 q 342 1149 342 1147 q 354 1167 344 1153 q 368 1183 364 1181 q 372 1185 369 1183 q 376 1185 375 1185 q 378 1186 376 1186 q 387 1185 382 1186 q 393 1183 392 1183 q 401 1179 396 1183 q 408 1172 407 1175 q 410 1158 408 1168 q 413 1144 413 1149 q 410 1129 413 1140 q 408 1115 408 1118 l 401 1094 q 398 1083 400 1092 q 392 1066 396 1075 q 387 1048 389 1057 q 383 1036 385 1039 q 379 1026 382 1033 q 375 1011 376 1019 q 368 993 371 1003 q 354 974 364 989 q 332 943 344 960 q 308 913 319 926 q 290 892 296 899 q 278 881 288 889 q 264 868 268 872 q 251 859 260 865 q 233 846 242 853 q 215 833 224 839 q 203 825 206 826 q 192 819 200 824 q 176 808 185 814 q 159 797 167 801 q 150 790 151 792 q 142 778 147 786 q 135 767 136 769 q 128 756 132 764 q 124 743 125 747 l 124 726 l 124 710 q 128 703 125 707 q 135 700 132 700 l 154 700 l 175 700 q 196 713 181 703 q 228 733 211 724 q 260 753 244 743 q 281 767 275 764 q 298 783 283 769 q 315 800 313 797 q 329 813 318 803 q 342 825 340 822 q 359 846 347 831 q 384 879 371 861 q 410 914 397 897 q 428 936 422 931 q 441 958 431 942 q 453 981 451 975 q 458 991 454 982 q 465 1011 461 1000 q 474 1032 469 1022 q 481 1047 478 1042 q 484 1063 481 1050 q 488 1082 488 1076 q 493 1105 490 1086 q 497 1128 496 1124 q 501 1146 497 1133 q 506 1161 506 1158 q 515 1174 508 1165 q 524 1183 521 1183 q 531 1185 526 1183 q 535 1185 532 1185 q 539 1186 538 1186 q 544 1185 542 1186 q 550 1185 547 1185 q 558 1183 554 1183 q 567 1174 561 1183 q 575 1161 574 1165 l 575 1132 l 575 1094 q 571 1069 574 1086 q 565 1047 568 1051 q 556 1019 564 1039 q 540 979 549 1000 q 524 938 532 958 q 514 911 517 918 q 503 892 514 908 q 488 868 493 876 q 478 853 486 865 q 458 824 469 840 q 436 791 447 807 q 419 767 425 775 q 415 760 418 764 q 408 757 411 757 q 394 742 404 751 q 374 721 385 732 q 355 701 364 710 q 342 690 346 692 q 333 682 340 686 q 324 675 325 678 q 314 667 321 674 q 298 652 307 660 q 281 639 289 644 q 272 632 274 633 q 263 626 267 628 q 246 622 253 622 q 235 617 243 619 q 216 610 226 614 q 197 603 206 607 q 186 599 188 600 q 167 586 181 594 q 150 575 153 578 q 138 558 147 572 q 124 540 128 544 q 119 528 119 535 q 115 519 117 524 l 115 24 q 114 18 114 19 q 108 14 111 14 q 98 5 104 10 q 90 0 92 0 l 69 0 l 46 0 q 38 6 43 3 q 31 14 32 10 q 24 24 28 17 q 19 33 19 31 l 19 1139 q 24 1149 19 1142 q 31 1161 28 1157 q 33 1167 31 1164 q 39 1174 36 1169 l 46 1183 q 56 1186 47 1186 q 69 1186 65 1186 m 169 1142 q 169 1200 165 1182 q 178 1224 172 1218 q 189 1231 183 1231 q 194 1240 194 1232 q 203 1242 197 1240 q 209 1242 206 1242 q 214 1243 213 1243 q 227 1242 219 1243 q 238 1240 235 1240 q 240 1228 238 1236 q 246 1217 243 1219 q 255 1200 247 1214 q 264 1183 263 1186 q 266 1177 265 1181 q 269 1169 267 1174 q 272 1161 269 1165 l 272 1149 l 272 1139 q 268 1126 272 1135 q 264 1115 264 1118 q 245 1091 258 1107 q 228 1072 232 1075 q 222 1069 225 1069 q 214 1068 219 1068 q 208 1070 213 1068 q 203 1072 204 1072 l 169 1142 z "},"w":{"ha":558,"x_min":15,"x_max":547,"o":"m 31 39 q 26 99 28 56 q 22 192 24 143 q 17 283 19 240 q 15 344 15 326 q 17 372 15 350 q 22 422 19 394 q 28 471 25 449 q 31 499 31 493 l 31 560 l 31 628 q 29 675 31 640 q 26 758 28 710 q 23 858 25 806 q 19 959 21 911 q 17 1042 18 1007 q 15 1089 15 1076 l 15 1103 l 15 1111 q 22 1126 17 1117 q 33 1144 26 1135 q 43 1159 39 1153 q 50 1165 47 1165 q 71 1160 58 1167 q 95 1140 83 1153 q 116 1114 107 1128 q 129 1089 125 1100 q 144 1043 132 1081 q 171 962 157 1006 q 197 881 185 918 q 213 835 208 843 q 256 756 231 803 q 309 658 281 710 q 366 547 338 606 q 420 433 394 489 q 465 325 446 376 q 493 233 485 274 q 518 170 508 190 q 535 131 528 150 q 544 84 542 111 q 547 0 547 57 q 519 -8 531 0 q 497 -17 507 -15 q 472 -9 486 -19 q 438 38 458 1 q 388 141 418 74 q 311 322 357 208 q 262 425 289 381 q 213 528 235 469 q 199 560 208 536 q 178 610 190 585 q 154 655 167 635 q 133 675 142 675 q 133 624 133 660 q 131 549 132 589 q 130 472 131 508 q 129 422 129 436 q 133 372 131 414 q 139 283 136 331 q 144 194 142 235 q 147 144 146 153 l 147 85 q 144 44 147 58 q 135 24 142 31 q 117 16 128 17 q 89 15 106 15 q 77 13 86 15 q 58 13 68 11 q 40 19 49 14 q 31 39 32 24 z "},"x":{"ha":596,"x_min":3,"x_max":592,"o":"m 253 33 q 251 83 253 49 q 245 154 249 117 q 239 225 242 192 q 235 269 236 258 q 232 289 235 276 q 224 314 229 301 q 217 338 219 326 q 214 353 214 350 l 203 353 l 190 353 q 167 338 186 350 q 128 312 149 325 q 88 286 107 299 q 65 269 69 274 l 46 269 q 19 273 36 269 q 3 294 3 276 q 17 348 3 326 q 50 385 31 369 q 92 410 69 400 q 126 432 114 419 l 235 489 l 214 775 q 206 778 208 775 q 203 783 204 781 l 190 775 q 167 756 186 772 q 128 723 149 740 q 88 690 107 706 q 65 672 69 674 l 58 672 l 46 672 q 36 696 46 676 q 26 726 26 715 l 26 735 q 53 798 26 772 q 111 846 79 824 q 174 890 143 868 q 214 935 206 911 q 222 1013 225 968 q 212 1103 218 1058 q 208 1181 206 1147 q 239 1222 211 1214 q 301 1206 279 1222 q 334 1163 322 1190 q 350 1097 346 1136 q 358 1015 354 1058 q 392 1040 368 1024 q 443 1074 417 1056 q 494 1106 469 1092 q 528 1126 519 1119 q 543 1117 533 1126 q 557 1107 553 1107 l 568 1028 l 358 885 l 358 586 q 413 605 386 586 q 465 648 440 624 q 514 695 489 672 q 565 726 539 718 q 572 722 568 726 q 581 715 575 718 q 592 701 586 708 q 567 606 592 647 q 508 537 543 565 q 432 490 472 508 q 358 456 392 472 l 358 33 q 351 13 358 19 q 335 4 344 7 q 319 1 326 1 q 310 0 311 0 q 276 4 293 0 q 253 33 258 8 z "},"y":{"ha":611,"x_min":14,"x_max":604,"o":"m 231 401 q 226 400 229 401 q 219 399 222 399 q 206 385 213 392 q 194 374 200 381 q 186 365 188 368 q 181 362 183 365 q 178 356 178 358 q 168 338 175 351 q 158 322 161 325 q 154 313 158 319 q 146 299 150 307 q 138 286 142 292 q 132 278 133 281 q 128 267 131 275 q 122 249 125 258 q 117 228 119 239 q 114 214 114 218 q 111 196 114 210 q 106 165 108 182 q 100 128 103 147 q 97 100 97 110 q 94 88 96 97 q 92 67 93 78 q 89 47 90 57 q 86 35 88 36 q 83 32 85 33 q 81 28 81 31 q 79 25 81 26 q 69 19 76 22 q 60 15 63 15 q 54 14 58 14 q 47 11 51 11 q 39 14 42 11 q 33 15 36 14 q 24 24 31 15 q 17 35 17 32 q 16 51 17 40 q 15 74 15 61 q 15 97 15 86 q 14 114 14 108 q 15 132 14 119 q 15 157 15 144 q 16 179 15 169 q 17 190 17 189 q 20 206 17 193 q 25 224 24 218 q 29 235 25 226 q 33 247 33 243 q 38 262 35 249 q 47 289 42 275 q 55 315 51 303 q 60 332 58 328 q 65 344 63 336 q 69 356 68 351 q 77 366 71 357 q 90 386 83 375 q 103 407 97 397 q 114 422 110 417 q 128 438 118 425 q 140 453 138 450 q 151 463 144 457 q 166 477 158 469 q 179 490 174 485 q 186 497 185 494 q 199 503 188 500 q 213 510 210 507 q 222 515 214 510 q 231 519 229 519 q 244 533 235 525 q 253 543 253 540 l 253 1157 l 265 1169 q 276 1177 269 1174 q 285 1181 282 1181 l 306 1181 l 326 1181 q 335 1177 329 1181 q 346 1169 342 1174 q 350 1167 347 1168 q 354 1161 353 1165 q 358 1157 357 1158 l 358 543 q 367 533 358 540 q 381 519 375 525 q 390 515 382 519 q 399 510 397 510 q 413 503 401 507 q 425 497 424 500 q 443 481 431 493 q 460 464 456 468 q 469 453 464 460 q 483 439 475 447 q 497 423 490 431 q 506 411 503 415 q 517 394 510 406 q 532 374 525 383 q 544 356 539 364 q 551 344 550 347 q 555 329 551 343 q 564 296 558 315 q 576 256 569 276 q 586 224 582 236 q 588 214 586 219 q 592 203 590 208 l 593 190 q 596 172 594 186 q 599 141 597 158 q 602 107 601 124 q 604 82 603 90 l 604 61 l 604 49 q 599 36 603 44 q 593 25 596 28 q 585 13 592 19 q 578 1 578 6 l 569 1 l 558 1 q 551 8 557 6 q 540 15 544 11 l 536 18 q 532 25 532 19 q 528 36 531 28 q 525 49 525 44 q 522 56 524 50 q 519 68 521 61 q 516 82 518 75 q 514 90 514 89 q 511 114 514 94 q 506 156 508 133 q 500 198 503 178 q 497 224 497 218 q 492 239 496 226 q 486 256 489 251 q 483 267 486 258 q 479 278 481 275 q 469 294 475 283 q 456 318 464 306 q 442 341 449 331 q 433 356 436 351 q 426 367 433 358 q 418 378 419 375 q 403 390 414 382 q 392 399 393 399 q 385 400 389 399 q 381 401 382 401 q 378 401 379 401 q 375 400 376 400 q 372 399 374 399 q 364 388 369 394 q 358 378 358 382 l 358 25 q 350 14 358 22 q 338 1 342 6 l 311 1 l 285 1 q 275 6 282 1 q 265 15 268 11 q 262 20 264 17 q 258 26 260 24 l 253 35 l 253 378 q 248 388 253 382 q 239 399 243 394 q 236 400 236 399 q 233 401 233 400 q 231 401 232 401 z "},"z":{"ha":771,"x_min":8,"x_max":775,"o":"m 503 385 q 476 370 488 385 q 454 335 465 356 q 433 299 443 315 q 413 275 422 282 q 392 280 403 268 q 371 331 381 292 q 371 383 358 353 q 406 444 383 414 q 455 501 429 474 q 497 547 481 528 l 497 822 l 476 822 q 356 640 419 728 q 224 468 292 551 l 214 465 q 199 461 203 461 q 144 547 153 461 q 140 590 142 558 q 134 658 138 622 q 128 728 131 694 q 124 776 125 761 l 119 776 q 78 703 92 732 q 56 664 64 675 q 38 659 47 653 q 8 690 28 665 l 8 747 q 15 809 8 783 q 33 855 21 835 q 61 892 46 875 q 93 931 76 910 q 103 941 97 933 q 117 957 110 949 l 133 976 l 144 1207 q 157 1218 150 1215 q 172 1220 164 1222 q 194 1208 181 1218 q 213 1180 211 1203 q 210 1131 214 1157 q 208 1082 207 1106 q 224 1053 208 1058 q 243 1085 232 1068 q 269 1115 254 1101 q 297 1136 283 1128 q 325 1144 311 1144 l 335 1078 q 313 1049 329 1074 q 279 994 297 1024 q 245 938 261 965 q 224 900 229 911 q 211 869 214 885 q 208 835 208 853 q 208 800 207 818 q 208 761 208 782 l 208 668 q 224 649 214 651 q 244 647 233 647 l 260 647 l 511 1031 q 525 1033 518 1032 q 536 1035 531 1035 q 547 1036 542 1036 q 564 1033 550 1036 l 578 1031 q 583 1015 579 1026 q 589 986 586 1003 q 594 954 592 969 q 597 931 597 939 q 594 910 597 925 q 589 876 592 894 q 583 842 586 858 q 578 822 579 826 l 578 800 l 578 776 q 579 752 579 772 q 579 711 579 732 q 579 670 579 690 q 581 644 579 650 q 645 740 608 697 q 729 783 682 783 q 772 747 768 767 q 758 704 775 728 q 711 649 742 681 q 650 575 681 617 q 597 481 619 533 q 575 361 575 428 q 575 347 575 358 q 575 323 575 336 q 576 299 575 310 q 578 285 578 289 q 579 239 578 258 q 581 200 581 218 q 581 168 581 182 q 581 120 581 149 q 580 65 582 92 q 567 19 578 39 q 536 0 557 0 q 524 1 533 0 q 511 7 515 1 q 507 40 510 15 q 502 92 504 65 q 499 146 500 119 q 497 185 497 172 q 494 225 493 197 q 497 284 496 253 q 501 344 499 315 q 503 385 503 372 z "}}}
